<?xml version="1.0" encoding="utf-8" ?>
<svg xmlns="http://www.w3.org/2000/svg" xmlns:xlink="http://www.w3.org/1999/xlink" width="70" height="74">
	<defs>
		<clipPath id="clip_0">
			<path d="M460.95 -82.47L-1178.49 -82.47Q-1178.59 -82.47 -1178.69 -82.4608Q-1178.79 -82.4516 -1178.89 -82.4332Q-1178.99 -82.4148 -1179.08 -82.3874Q-1179.18 -82.3601 -1179.27 -82.3239Q-1179.36 -82.2877 -1179.44 -82.2431Q-1179.53 -82.1984 -1179.61 -82.1457Q-1179.69 -82.0929 -1179.76 -82.0324Q-1179.84 -81.972 -1179.9 -81.9043Q-1179.97 -81.8367 -1180.03 -81.7624Q-1180.09 -81.6881 -1180.15 -81.6077Q-1180.2 -81.5274 -1180.24 -81.4417Q-1180.29 -81.3559 -1180.32 -81.2655Q-1180.36 -81.1751 -1180.39 -81.0808Q-1180.41 -80.9864 -1180.43 -80.8889Q-1180.45 -80.7913 -1180.46 -80.6914Q-1180.47 -80.5915 -1180.47 -80.49L-1180.47 150.18Q-1180.47 150.281 -1180.46 150.381Q-1180.45 150.481 -1180.43 150.579Q-1180.41 150.676 -1180.39 150.771Q-1180.36 150.865 -1180.32 150.955Q-1180.29 151.046 -1180.24 151.132Q-1180.2 151.217 -1180.15 151.298Q-1180.09 151.378 -1180.03 151.452Q-1179.97 151.527 -1179.9 151.594Q-1179.84 151.662 -1179.76 151.722Q-1179.69 151.783 -1179.61 151.836Q-1179.53 151.888 -1179.44 151.933Q-1179.36 151.978 -1179.27 152.014Q-1179.18 152.05 -1179.08 152.077Q-1178.99 152.105 -1178.89 152.123Q-1178.79 152.142 -1178.69 152.151Q-1178.59 152.16 -1178.49 152.16L460.95 152.16Q461.052 152.16 461.152 152.151Q461.251 152.142 461.349 152.123Q461.446 152.105 461.541 152.077Q461.635 152.05 461.726 152.014Q461.816 151.978 461.902 151.933Q461.987 151.888 462.068 151.836Q462.148 151.783 462.222 151.722Q462.297 151.662 462.364 151.594Q462.432 151.527 462.492 151.452Q462.553 151.378 462.606 151.298Q462.658 151.217 462.703 151.132Q462.748 151.046 462.784 150.955Q462.82 150.865 462.847 150.771Q462.875 150.676 462.893 150.579Q462.912 150.481 462.921 150.381Q462.93 150.281 462.93 150.18L462.93 -80.49Q462.93 -80.5915 462.921 -80.6914Q462.912 -80.7913 462.893 -80.8889Q462.875 -80.9864 462.847 -81.0808Q462.82 -81.1751 462.784 -81.2655Q462.748 -81.356 462.703 -81.4417Q462.658 -81.5274 462.606 -81.6077Q462.553 -81.6881 462.493 -81.7624Q462.432 -81.8367 462.364 -81.9043Q462.297 -81.972 462.222 -82.0324Q462.148 -82.0929 462.068 -82.1457Q461.987 -82.1984 461.902 -82.2431Q461.816 -82.2877 461.726 -82.3239Q461.635 -82.3601 461.541 -82.3874Q461.446 -82.4148 461.349 -82.4332Q461.251 -82.4516 461.152 -82.4608Q461.052 -82.47 460.95 -82.47Z" clip-rule="evenodd"/>
		</clipPath>
	</defs>
	<g clip-path="url(#clip_0)">
		<path fill="rgb(0,0,0)" stroke="none" transform="matrix(0.99 0 0 0.99 0.600006 0.690002)" d="M64.8347 15.5716C58.4782 8.46774 48.1431 0 35 0C21.8569 0 11.5218 8.46774 5.16532 15.5716C1.83468 19.294 0 24.1398 0 29.216C0 30.8994 0.207742 32.5794 0.615323 34.2119L7.04065 59.9121C7.69436 62.5281 10.0348 64.3548 12.7298 64.3548C14.9281 64.3548 16.8666 63.1321 17.8692 61.3031C20.51 64.1832 26.8439 70 35 70C43.1561 70 49.49 64.1832 52.1297 61.3031C53.1334 63.1321 55.0708 64.3548 57.2702 64.3548C59.9663 64.3548 62.3056 62.5281 62.9594 59.9121L69.3847 34.2119C69.7923 32.5794 70 30.8994 70 29.216C70 24.1398 68.1653 19.294 64.8347 15.5716ZM67.1955 33.6644L60.769 59.3645C60.3671 60.9734 58.9276 62.0968 57.269 62.0968C55.4434 62.0968 53.9034 60.7295 53.6877 58.9163L50.059 28.4324L50.059 28.4313L49.4358 23.1982L48.5394 15.6721L46.2971 15.9385L46.436 17.106C45.0473 16.2671 43.444 15.8065 41.7742 15.8065C36.794 15.8065 32.7419 19.8585 32.7419 24.8387C32.7419 29.8189 36.794 33.871 41.7742 33.871C44.1813 33.871 46.4495 32.874 48.1171 31.2223L51.3902 58.7119C50.6484 59.6095 48.3711 62.1758 45.089 64.3548L42.9032 64.3548C39.5173 64.3548 36.7116 61.8552 36.2148 58.6058C39.996 58.0187 42.9032 54.7502 42.9032 50.8065C42.9032 46.2903 38.7044 46.2903 35 46.2903C31.2956 46.2903 27.0968 46.2903 27.0968 50.8065C27.0968 54.7502 30.004 58.0187 33.7852 58.6058C33.2884 61.8552 30.4827 64.3548 27.0968 64.3548L24.911 64.3548C21.63 62.1758 19.3527 59.6095 18.6098 58.7119L21.175 37.1711L18.9327 36.9047L16.3123 58.9163C16.0966 60.7295 14.5566 62.0968 12.7298 62.0968C11.0713 62.0968 9.6329 60.9734 9.22984 59.3645L2.80452 33.6644C2.4421 32.2113 2.25806 30.7142 2.25806 29.216C2.25806 24.6965 3.88839 20.3858 6.84758 17.0777C12.8981 10.3171 22.6924 2.25806 35 2.25806C47.3076 2.25806 57.1019 10.3171 63.1524 17.0766C66.1116 20.3858 67.7419 24.6965 67.7419 29.216C67.7419 30.7142 67.5579 32.2113 67.1955 33.6644ZM41.7742 31.6129C44.2569 31.6129 46.5635 30.2185 47.7377 28.0361L46.8831 20.8544L46.8198 20.3215C45.5327 18.8831 43.7116 18.0645 41.7742 18.0645C38.0382 18.0645 35 21.1027 35 24.8387C35 28.5747 38.0382 31.6129 41.7742 31.6129ZM35 48.5484C30.5573 48.5484 29.3548 48.8295 29.3548 50.8064C29.3548 53.9192 31.8873 56.4516 35 56.4516C38.1127 56.4516 40.6452 53.9192 40.6452 50.8064C40.6452 48.8295 39.4427 48.5484 35 48.5484ZM35 67.7419C32.7871 67.7419 30.7097 67.2237 28.8118 66.4447C31.4752 65.9298 33.7242 64.2442 35 61.9432C36.2747 64.2442 38.5237 65.9298 41.1882 66.4447C39.2903 67.2237 37.2129 67.7419 35 67.7419Z" fill-rule="evenodd"/>
	</g>
	<defs>
		<clipPath id="clip_1">
			<path d="M460.95 -82.47L-1178.49 -82.47Q-1178.59 -82.47 -1178.69 -82.4608Q-1178.79 -82.4516 -1178.89 -82.4332Q-1178.99 -82.4148 -1179.08 -82.3874Q-1179.18 -82.3601 -1179.27 -82.3239Q-1179.36 -82.2877 -1179.44 -82.2431Q-1179.53 -82.1984 -1179.61 -82.1457Q-1179.69 -82.0929 -1179.76 -82.0324Q-1179.84 -81.972 -1179.9 -81.9043Q-1179.97 -81.8367 -1180.03 -81.7624Q-1180.09 -81.6881 -1180.15 -81.6077Q-1180.2 -81.5274 -1180.24 -81.4417Q-1180.29 -81.3559 -1180.32 -81.2655Q-1180.36 -81.1751 -1180.39 -81.0808Q-1180.41 -80.9864 -1180.43 -80.8889Q-1180.45 -80.7913 -1180.46 -80.6914Q-1180.47 -80.5915 -1180.47 -80.49L-1180.47 150.18Q-1180.47 150.281 -1180.46 150.381Q-1180.45 150.481 -1180.43 150.579Q-1180.41 150.676 -1180.39 150.771Q-1180.36 150.865 -1180.32 150.955Q-1180.29 151.046 -1180.24 151.132Q-1180.2 151.217 -1180.15 151.298Q-1180.09 151.378 -1180.03 151.452Q-1179.97 151.527 -1179.9 151.594Q-1179.84 151.662 -1179.76 151.722Q-1179.69 151.783 -1179.61 151.836Q-1179.53 151.888 -1179.44 151.933Q-1179.36 151.978 -1179.27 152.014Q-1179.18 152.05 -1179.08 152.077Q-1178.99 152.105 -1178.89 152.123Q-1178.79 152.142 -1178.69 152.151Q-1178.59 152.16 -1178.49 152.16L460.95 152.16Q461.052 152.16 461.152 152.151Q461.251 152.142 461.349 152.123Q461.446 152.105 461.541 152.077Q461.635 152.05 461.726 152.014Q461.816 151.978 461.902 151.933Q461.987 151.888 462.068 151.836Q462.148 151.783 462.222 151.722Q462.297 151.662 462.364 151.594Q462.432 151.527 462.492 151.452Q462.553 151.378 462.606 151.298Q462.658 151.217 462.703 151.132Q462.748 151.046 462.784 150.955Q462.82 150.865 462.847 150.771Q462.875 150.676 462.893 150.579Q462.912 150.481 462.921 150.381Q462.93 150.281 462.93 150.18L462.93 -80.49Q462.93 -80.5915 462.921 -80.6914Q462.912 -80.7913 462.893 -80.8889Q462.875 -80.9864 462.847 -81.0808Q462.82 -81.1751 462.784 -81.2655Q462.748 -81.356 462.703 -81.4417Q462.658 -81.5274 462.606 -81.6077Q462.553 -81.6881 462.493 -81.7624Q462.432 -81.8367 462.364 -81.9043Q462.297 -81.972 462.222 -82.0324Q462.148 -82.0929 462.068 -82.1457Q461.987 -82.1984 461.902 -82.2431Q461.816 -82.2877 461.726 -82.3239Q461.635 -82.3601 461.541 -82.3874Q461.446 -82.4148 461.349 -82.4332Q461.251 -82.4516 461.152 -82.4608Q461.052 -82.47 460.95 -82.47Z" clip-rule="evenodd"/>
		</clipPath>
	</defs>
	<g clip-path="url(#clip_1)">
		<path fill="rgb(0,0,0)" stroke="none" transform="matrix(0.99 0 0 0.99 22.9006 54.6721)" d="M0 0L-2.24227 -0.26658L0.0396597 -19.4604L2.28193 -19.1938L0 0Z"/>
	</g>
	<defs>
		<clipPath id="clip_2">
			<path d="M460.95 -82.47L-1178.49 -82.47Q-1178.59 -82.47 -1178.69 -82.4608Q-1178.79 -82.4516 -1178.89 -82.4332Q-1178.99 -82.4148 -1179.08 -82.3874Q-1179.18 -82.3601 -1179.27 -82.3239Q-1179.36 -82.2877 -1179.44 -82.2431Q-1179.53 -82.1984 -1179.61 -82.1457Q-1179.69 -82.0929 -1179.76 -82.0324Q-1179.84 -81.972 -1179.9 -81.9043Q-1179.97 -81.8367 -1180.03 -81.7624Q-1180.09 -81.6881 -1180.15 -81.6077Q-1180.2 -81.5274 -1180.24 -81.4417Q-1180.29 -81.3559 -1180.32 -81.2655Q-1180.36 -81.1751 -1180.39 -81.0808Q-1180.41 -80.9864 -1180.43 -80.8889Q-1180.45 -80.7913 -1180.46 -80.6914Q-1180.47 -80.5915 -1180.47 -80.49L-1180.47 150.18Q-1180.47 150.281 -1180.46 150.381Q-1180.45 150.481 -1180.43 150.579Q-1180.41 150.676 -1180.39 150.771Q-1180.36 150.865 -1180.32 150.955Q-1180.29 151.046 -1180.24 151.132Q-1180.2 151.217 -1180.15 151.298Q-1180.09 151.378 -1180.03 151.452Q-1179.97 151.527 -1179.9 151.594Q-1179.84 151.662 -1179.76 151.722Q-1179.69 151.783 -1179.61 151.836Q-1179.53 151.888 -1179.44 151.933Q-1179.36 151.978 -1179.27 152.014Q-1179.18 152.05 -1179.08 152.077Q-1178.99 152.105 -1178.89 152.123Q-1178.79 152.142 -1178.69 152.151Q-1178.59 152.16 -1178.49 152.16L460.95 152.16Q461.052 152.16 461.152 152.151Q461.251 152.142 461.349 152.123Q461.446 152.105 461.541 152.077Q461.635 152.05 461.726 152.014Q461.816 151.978 461.902 151.933Q461.987 151.888 462.068 151.836Q462.148 151.783 462.222 151.722Q462.297 151.662 462.364 151.594Q462.432 151.527 462.492 151.452Q462.553 151.378 462.606 151.298Q462.658 151.217 462.703 151.132Q462.748 151.046 462.784 150.955Q462.82 150.865 462.847 150.771Q462.875 150.676 462.893 150.579Q462.912 150.481 462.921 150.381Q462.93 150.281 462.93 150.18L462.93 -80.49Q462.93 -80.5915 462.921 -80.6914Q462.912 -80.7913 462.893 -80.8889Q462.875 -80.9864 462.847 -81.0808Q462.82 -81.1751 462.784 -81.2655Q462.748 -81.356 462.703 -81.4417Q462.658 -81.5274 462.606 -81.6077Q462.553 -81.6881 462.493 -81.7624Q462.432 -81.8367 462.364 -81.9043Q462.297 -81.972 462.222 -82.0324Q462.148 -82.0929 462.068 -82.1457Q461.987 -82.1984 461.902 -82.2431Q461.816 -82.2877 461.726 -82.3239Q461.635 -82.3601 461.541 -82.3874Q461.446 -82.4148 461.349 -82.4332Q461.251 -82.4516 461.152 -82.4608Q461.052 -82.47 460.95 -82.47Z" clip-rule="evenodd"/>
		</clipPath>
	</defs>
	<g clip-path="url(#clip_2)">
		<path fill="rgb(0,0,0)" stroke="none" transform="matrix(0.99 0 0 0.99 38.6032 21.9271)" d="M0 3.3871C0 1.51968 1.51968 0 3.3871 0C5.25452 0 6.77419 1.51968 6.77419 3.3871C6.77419 5.25452 5.25452 6.77419 3.3871 6.77419C1.51968 6.77419 0 5.25452 0 3.3871ZM2.25806 3.3871C2.25806 4.00919 2.76387 4.51613 3.3871 4.51613C4.01032 4.51613 4.51613 4.00919 4.51613 3.3871C4.51613 2.765 4.01032 2.25806 3.3871 2.25806C2.76387 2.25806 2.25806 2.765 2.25806 3.3871Z" fill-rule="evenodd"/>
	</g>
	<defs>
		<clipPath id="clip_3">
			<path d="M460.95 -82.47L-1178.49 -82.47Q-1178.59 -82.47 -1178.69 -82.4608Q-1178.79 -82.4516 -1178.89 -82.4332Q-1178.99 -82.4148 -1179.08 -82.3874Q-1179.18 -82.3601 -1179.27 -82.3239Q-1179.36 -82.2877 -1179.44 -82.2431Q-1179.53 -82.1984 -1179.61 -82.1457Q-1179.69 -82.0929 -1179.76 -82.0324Q-1179.84 -81.972 -1179.9 -81.9043Q-1179.97 -81.8367 -1180.03 -81.7624Q-1180.09 -81.6881 -1180.15 -81.6077Q-1180.2 -81.5274 -1180.24 -81.4417Q-1180.29 -81.3559 -1180.32 -81.2655Q-1180.36 -81.1751 -1180.39 -81.0808Q-1180.41 -80.9864 -1180.43 -80.8889Q-1180.45 -80.7913 -1180.46 -80.6914Q-1180.47 -80.5915 -1180.47 -80.49L-1180.47 150.18Q-1180.47 150.281 -1180.46 150.381Q-1180.45 150.481 -1180.43 150.579Q-1180.41 150.676 -1180.39 150.771Q-1180.36 150.865 -1180.32 150.955Q-1180.29 151.046 -1180.24 151.132Q-1180.2 151.217 -1180.15 151.298Q-1180.09 151.378 -1180.03 151.452Q-1179.97 151.527 -1179.9 151.594Q-1179.84 151.662 -1179.76 151.722Q-1179.69 151.783 -1179.61 151.836Q-1179.53 151.888 -1179.44 151.933Q-1179.36 151.978 -1179.27 152.014Q-1179.18 152.05 -1179.08 152.077Q-1178.99 152.105 -1178.89 152.123Q-1178.79 152.142 -1178.69 152.151Q-1178.59 152.16 -1178.49 152.16L460.95 152.16Q461.052 152.16 461.152 152.151Q461.251 152.142 461.349 152.123Q461.446 152.105 461.541 152.077Q461.635 152.05 461.726 152.014Q461.816 151.978 461.902 151.933Q461.987 151.888 462.068 151.836Q462.148 151.783 462.222 151.722Q462.297 151.662 462.364 151.594Q462.432 151.527 462.492 151.452Q462.553 151.378 462.606 151.298Q462.658 151.217 462.703 151.132Q462.748 151.046 462.784 150.955Q462.82 150.865 462.847 150.771Q462.875 150.676 462.893 150.579Q462.912 150.481 462.921 150.381Q462.93 150.281 462.93 150.18L462.93 -80.49Q462.93 -80.5915 462.921 -80.6914Q462.912 -80.7913 462.893 -80.8889Q462.875 -80.9864 462.847 -81.0808Q462.82 -81.1751 462.784 -81.2655Q462.748 -81.356 462.703 -81.4417Q462.658 -81.5274 462.606 -81.6077Q462.553 -81.6881 462.493 -81.7624Q462.432 -81.8367 462.364 -81.9043Q462.297 -81.972 462.222 -82.0324Q462.148 -82.0929 462.068 -82.1457Q461.987 -82.1984 461.902 -82.2431Q461.816 -82.2877 461.726 -82.3239Q461.635 -82.3601 461.541 -82.3874Q461.446 -82.4148 461.349 -82.4332Q461.251 -82.4516 461.152 -82.4608Q461.052 -82.47 460.95 -82.47Z" clip-rule="evenodd"/>
		</clipPath>
	</defs>
	<g clip-path="url(#clip_3)">
		<path fill="rgb(0,0,0)" stroke="none" transform="matrix(0.99 0 0 0.99 25.1903 21.9271)" d="M0 3.3871C0 1.51968 1.51968 0 3.3871 0C5.25452 0 6.77419 1.51968 6.77419 3.3871C6.77419 5.25452 5.25452 6.77419 3.3871 6.77419C1.51968 6.77419 0 5.25452 0 3.3871ZM2.25806 3.3871C2.25806 4.00919 2.76387 4.51613 3.3871 4.51613C4.01032 4.51613 4.51613 4.00919 4.51613 3.3871C4.51613 2.765 4.01032 2.25806 3.3871 2.25806C2.76387 2.25806 2.25806 2.765 2.25806 3.3871Z" fill-rule="evenodd"/>
	</g>

</svg>