<?xml version="1.0" encoding="utf-8" ?>
<svg xmlns="http://www.w3.org/2000/svg" xmlns:xlink="http://www.w3.org/1999/xlink" width="70" height="70">
	<defs>
		<clipPath id="clip_0">
			<path d="M1427.22 -84L-228.778 -84Q-228.88 -84 -228.981 -83.9907Q-229.082 -83.9814 -229.181 -83.9628Q-229.279 -83.9442 -229.375 -83.9166Q-229.47 -83.8889 -229.561 -83.8524Q-229.652 -83.8158 -229.739 -83.7708Q-229.826 -83.7257 -229.907 -83.6723Q-229.988 -83.6191 -230.063 -83.558Q-230.138 -83.4969 -230.206 -83.4286Q-230.275 -83.3602 -230.336 -83.2852Q-230.397 -83.2101 -230.45 -83.129Q-230.503 -83.0478 -230.549 -82.9613Q-230.594 -82.8747 -230.63 -82.7833Q-230.667 -82.692 -230.694 -82.5967Q-230.722 -82.5014 -230.741 -82.4029Q-230.759 -82.3044 -230.768 -82.2034Q-230.778 -82.1025 -230.778 -82L-230.778 151Q-230.778 151.103 -230.768 151.203Q-230.759 151.304 -230.741 151.403Q-230.722 151.501 -230.694 151.597Q-230.667 151.692 -230.63 151.783Q-230.594 151.875 -230.549 151.961Q-230.503 152.048 -230.45 152.129Q-230.397 152.21 -230.336 152.285Q-230.275 152.36 -230.206 152.429Q-230.138 152.497 -230.063 152.558Q-229.988 152.619 -229.907 152.672Q-229.826 152.726 -229.739 152.771Q-229.652 152.816 -229.561 152.852Q-229.47 152.889 -229.375 152.917Q-229.279 152.944 -229.181 152.963Q-229.082 152.981 -228.981 152.991Q-228.88 153 -228.778 153L1427.22 153Q1427.32 153 1427.43 152.991Q1427.53 152.981 1427.63 152.963Q1427.72 152.944 1427.82 152.917Q1427.91 152.889 1428.01 152.852Q1428.1 152.816 1428.18 152.771Q1428.27 152.726 1428.35 152.672Q1428.43 152.619 1428.51 152.558Q1428.58 152.497 1428.65 152.429Q1428.72 152.36 1428.78 152.285Q1428.84 152.21 1428.89 152.129Q1428.95 152.048 1428.99 151.961Q1429.04 151.875 1429.07 151.783Q1429.11 151.692 1429.14 151.597Q1429.17 151.501 1429.19 151.403Q1429.2 151.304 1429.21 151.203Q1429.22 151.103 1429.22 151L1429.22 -82Q1429.22 -82.1025 1429.21 -82.2034Q1429.2 -82.3044 1429.19 -82.4029Q1429.17 -82.5014 1429.14 -82.5967Q1429.11 -82.692 1429.07 -82.7833Q1429.04 -82.8747 1428.99 -82.9613Q1428.95 -83.0478 1428.89 -83.129Q1428.84 -83.2101 1428.78 -83.2852Q1428.72 -83.3602 1428.65 -83.4286Q1428.58 -83.4969 1428.51 -83.558Q1428.43 -83.6191 1428.35 -83.6723Q1428.27 -83.7257 1428.18 -83.7708Q1428.1 -83.8158 1428.01 -83.8524Q1427.91 -83.8889 1427.82 -83.9166Q1427.72 -83.9442 1427.63 -83.9628Q1427.53 -83.9814 1427.43 -83.9907Q1427.32 -84 1427.22 -84Z" clip-rule="evenodd"/>
		</clipPath>
	</defs>
	<g clip-path="url(#clip_0)">
		<path fill="rgb(0,0,0)" stroke="none" transform="translate(9.23688 9.0141)" d="M47.9268 39.573C50.3977 35.6045 51.831 30.9251 51.831 25.9155C51.831 11.6259 40.2051 0 25.9155 0C11.6259 0 0 11.6259 0 25.9155C0 40.2051 11.6259 51.831 25.9155 51.831C30.9251 51.831 35.6045 50.3978 39.573 47.9268L50.7617 59.1155C51.8772 60.231 53.3611 60.8462 54.9386 60.8462C58.1949 60.8451 60.8451 58.1949 60.8451 54.9375C60.8451 53.36 60.231 51.8761 59.1144 50.7606L47.9268 39.573ZM25.9155 49.5775C12.8676 49.5775 2.25352 38.9634 2.25352 25.9155C2.25352 12.8676 12.8676 2.25352 25.9155 2.25352C38.9634 2.25352 49.5775 12.8676 49.5775 25.9155C49.5775 38.9634 38.9634 49.5775 25.9155 49.5775ZM52.3538 57.5211C53.0445 58.2118 53.9617 58.5916 54.9375 58.5916C56.9521 58.5916 58.5916 56.9521 58.5916 54.9375C58.5916 53.9617 58.2107 53.0445 57.5211 52.3538L46.6321 41.4648C45.1606 43.4197 43.4197 45.1606 41.4648 46.6321L52.3538 57.5211Z" fill-rule="evenodd"/>
	</g>
	<defs>
		<clipPath id="clip_1">
			<path d="M1427.22 -84L-228.778 -84Q-228.88 -84 -228.981 -83.9907Q-229.082 -83.9814 -229.181 -83.9628Q-229.279 -83.9442 -229.375 -83.9166Q-229.47 -83.8889 -229.561 -83.8524Q-229.652 -83.8158 -229.739 -83.7708Q-229.826 -83.7257 -229.907 -83.6723Q-229.988 -83.6191 -230.063 -83.558Q-230.138 -83.4969 -230.206 -83.4286Q-230.275 -83.3602 -230.336 -83.2852Q-230.397 -83.2101 -230.45 -83.129Q-230.503 -83.0478 -230.549 -82.9613Q-230.594 -82.8747 -230.63 -82.7833Q-230.667 -82.692 -230.694 -82.5967Q-230.722 -82.5014 -230.741 -82.4029Q-230.759 -82.3044 -230.768 -82.2034Q-230.778 -82.1025 -230.778 -82L-230.778 151Q-230.778 151.103 -230.768 151.203Q-230.759 151.304 -230.741 151.403Q-230.722 151.501 -230.694 151.597Q-230.667 151.692 -230.63 151.783Q-230.594 151.875 -230.549 151.961Q-230.503 152.048 -230.45 152.129Q-230.397 152.21 -230.336 152.285Q-230.275 152.36 -230.206 152.429Q-230.138 152.497 -230.063 152.558Q-229.988 152.619 -229.907 152.672Q-229.826 152.726 -229.739 152.771Q-229.652 152.816 -229.561 152.852Q-229.47 152.889 -229.375 152.917Q-229.279 152.944 -229.181 152.963Q-229.082 152.981 -228.981 152.991Q-228.88 153 -228.778 153L1427.22 153Q1427.32 153 1427.43 152.991Q1427.53 152.981 1427.63 152.963Q1427.72 152.944 1427.82 152.917Q1427.91 152.889 1428.01 152.852Q1428.1 152.816 1428.18 152.771Q1428.27 152.726 1428.35 152.672Q1428.43 152.619 1428.51 152.558Q1428.58 152.497 1428.65 152.429Q1428.72 152.36 1428.78 152.285Q1428.84 152.21 1428.89 152.129Q1428.95 152.048 1428.99 151.961Q1429.04 151.875 1429.07 151.783Q1429.11 151.692 1429.14 151.597Q1429.17 151.501 1429.19 151.403Q1429.2 151.304 1429.21 151.203Q1429.22 151.103 1429.22 151L1429.22 -82Q1429.22 -82.1025 1429.21 -82.2034Q1429.2 -82.3044 1429.19 -82.4029Q1429.17 -82.5014 1429.14 -82.5967Q1429.11 -82.692 1429.07 -82.7833Q1429.04 -82.8747 1428.99 -82.9613Q1428.95 -83.0478 1428.89 -83.129Q1428.84 -83.2101 1428.78 -83.2852Q1428.72 -83.3602 1428.65 -83.4286Q1428.58 -83.4969 1428.51 -83.558Q1428.43 -83.6191 1428.35 -83.6723Q1428.27 -83.7257 1428.18 -83.7708Q1428.1 -83.8158 1428.01 -83.8524Q1427.91 -83.8889 1427.82 -83.9166Q1427.72 -83.9442 1427.63 -83.9628Q1427.53 -83.9814 1427.43 -83.9907Q1427.32 -84 1427.22 -84Z" clip-rule="evenodd"/>
		</clipPath>
	</defs>
	<g clip-path="url(#clip_1)">
		<path fill="rgb(0,0,0)" stroke="none" transform="translate(0.222778 0)" d="M34.9296 67.6056C16.9115 67.6056 2.25352 52.9476 2.25352 34.9296C2.25352 16.9115 16.9115 2.25352 34.9296 2.25352C52.9476 2.25352 67.6056 16.9115 67.6056 34.9296C67.6056 40.8789 65.9899 46.7031 62.9318 51.7746L64.862 52.9375C68.1307 47.5155 69.8592 41.289 69.8592 34.9296C69.8592 15.6699 54.1893 0 34.9296 0C15.6699 0 0 15.6699 0 34.9296C0 54.1893 15.6699 69.8592 34.9296 69.8592C41.289 69.8592 47.5155 68.1307 52.9375 64.862L51.7746 62.9318C46.7031 65.9899 40.8789 67.6056 34.9296 67.6056Z"/>
	</g>
	<defs>
		<clipPath id="clip_2">
			<path d="M1427.22 -84L-228.778 -84Q-228.88 -84 -228.981 -83.9907Q-229.082 -83.9814 -229.181 -83.9628Q-229.279 -83.9442 -229.375 -83.9166Q-229.47 -83.8889 -229.561 -83.8524Q-229.652 -83.8158 -229.739 -83.7708Q-229.826 -83.7257 -229.907 -83.6723Q-229.988 -83.6191 -230.063 -83.558Q-230.138 -83.4969 -230.206 -83.4286Q-230.275 -83.3602 -230.336 -83.2852Q-230.397 -83.2101 -230.45 -83.129Q-230.503 -83.0478 -230.549 -82.9613Q-230.594 -82.8747 -230.63 -82.7833Q-230.667 -82.692 -230.694 -82.5967Q-230.722 -82.5014 -230.741 -82.4029Q-230.759 -82.3044 -230.768 -82.2034Q-230.778 -82.1025 -230.778 -82L-230.778 151Q-230.778 151.103 -230.768 151.203Q-230.759 151.304 -230.741 151.403Q-230.722 151.501 -230.694 151.597Q-230.667 151.692 -230.63 151.783Q-230.594 151.875 -230.549 151.961Q-230.503 152.048 -230.45 152.129Q-230.397 152.21 -230.336 152.285Q-230.275 152.36 -230.206 152.429Q-230.138 152.497 -230.063 152.558Q-229.988 152.619 -229.907 152.672Q-229.826 152.726 -229.739 152.771Q-229.652 152.816 -229.561 152.852Q-229.47 152.889 -229.375 152.917Q-229.279 152.944 -229.181 152.963Q-229.082 152.981 -228.981 152.991Q-228.88 153 -228.778 153L1427.22 153Q1427.32 153 1427.43 152.991Q1427.53 152.981 1427.63 152.963Q1427.72 152.944 1427.82 152.917Q1427.91 152.889 1428.01 152.852Q1428.1 152.816 1428.18 152.771Q1428.27 152.726 1428.35 152.672Q1428.43 152.619 1428.51 152.558Q1428.58 152.497 1428.65 152.429Q1428.72 152.36 1428.78 152.285Q1428.84 152.21 1428.89 152.129Q1428.95 152.048 1428.99 151.961Q1429.04 151.875 1429.07 151.783Q1429.11 151.692 1429.14 151.597Q1429.17 151.501 1429.19 151.403Q1429.2 151.304 1429.21 151.203Q1429.22 151.103 1429.22 151L1429.22 -82Q1429.22 -82.1025 1429.21 -82.2034Q1429.2 -82.3044 1429.19 -82.4029Q1429.17 -82.5014 1429.14 -82.5967Q1429.11 -82.692 1429.07 -82.7833Q1429.04 -82.8747 1428.99 -82.9613Q1428.95 -83.0478 1428.89 -83.129Q1428.84 -83.2101 1428.78 -83.2852Q1428.72 -83.3602 1428.65 -83.4286Q1428.58 -83.4969 1428.51 -83.558Q1428.43 -83.6191 1428.35 -83.6723Q1428.27 -83.7257 1428.18 -83.7708Q1428.1 -83.8158 1428.01 -83.8524Q1427.91 -83.8889 1427.82 -83.9166Q1427.72 -83.9442 1427.63 -83.9628Q1427.53 -83.9814 1427.43 -83.9907Q1427.32 -84 1427.22 -84Z" clip-rule="evenodd"/>
		</clipPath>
	</defs>
	<g clip-path="url(#clip_2)">
		<path fill="rgb(0,0,0)" stroke="none" transform="translate(17.124 21.4084)" d="M26.1541 0C28.8053 0 31.2955 1.03549 33.1651 2.91718C35.0335 4.79775 36.055 7.29577 36.0404 9.9493C36.0258 12.5679 34.9141 15.1144 32.9117 17.1177L22.6616 27.3724C21.4227 28.613 19.7739 29.2958 18.0203 29.2958C16.2667 29.2958 14.6179 28.613 13.379 27.3724L2.89578 16.8845C0.905681 14.8935 -0.143991 12.1386 0.0159375 9.32732C0.313269 4.0969 4.83181 0 10.302 0L10.6354 0C12.8643 0 15.0729 1.02085 16.8546 2.87324C17.4707 3.51437 18.5699 3.51437 19.186 2.87324C20.9677 1.02085 23.1752 0 25.404 0L26.1541 0ZM21.071 24.6175L31.3216 14.8692C32.8793 13.3879 33.7792 11.4513 33.7905 9.55645C33.8018 7.60914 33.0145 5.77538 31.5705 4.3947C30.1266 3.01402 28.204 2.25352 26.1563 2.25352L25.4062 2.25352C23.3417 2.25352 21.7682 3.38141 20.8108 4.32829C19.3376 5.78395 16.7054 5.78395 15.2322 4.32829C14.2748 3.38141 12.7014 2.25352 10.6368 2.25352L10.3035 2.25352C6.02684 2.25352 2.49585 5.26124 2.26608 9.09908C2.14219 11.1642 2.95313 13.1854 4.48942 14.6475L14.9732 24.6175C16.6018 26.1664 19.4424 26.1664 21.071 24.6175Z" fill-rule="evenodd"/>
	</g>
	<defs>
		<clipPath id="clip_3">
			<path d="M1427.22 -84L-228.778 -84Q-228.88 -84 -228.981 -83.9907Q-229.082 -83.9814 -229.181 -83.9628Q-229.279 -83.9442 -229.375 -83.9166Q-229.47 -83.8889 -229.561 -83.8524Q-229.652 -83.8158 -229.739 -83.7708Q-229.826 -83.7257 -229.907 -83.6723Q-229.988 -83.6191 -230.063 -83.558Q-230.138 -83.4969 -230.206 -83.4286Q-230.275 -83.3602 -230.336 -83.2852Q-230.397 -83.2101 -230.45 -83.129Q-230.503 -83.0478 -230.549 -82.9613Q-230.594 -82.8747 -230.63 -82.7833Q-230.667 -82.692 -230.694 -82.5967Q-230.722 -82.5014 -230.741 -82.4029Q-230.759 -82.3044 -230.768 -82.2034Q-230.778 -82.1025 -230.778 -82L-230.778 151Q-230.778 151.103 -230.768 151.203Q-230.759 151.304 -230.741 151.403Q-230.722 151.501 -230.694 151.597Q-230.667 151.692 -230.63 151.783Q-230.594 151.875 -230.549 151.961Q-230.503 152.048 -230.45 152.129Q-230.397 152.21 -230.336 152.285Q-230.275 152.36 -230.206 152.429Q-230.138 152.497 -230.063 152.558Q-229.988 152.619 -229.907 152.672Q-229.826 152.726 -229.739 152.771Q-229.652 152.816 -229.561 152.852Q-229.47 152.889 -229.375 152.917Q-229.279 152.944 -229.181 152.963Q-229.082 152.981 -228.981 152.991Q-228.88 153 -228.778 153L1427.22 153Q1427.32 153 1427.43 152.991Q1427.53 152.981 1427.63 152.963Q1427.72 152.944 1427.82 152.917Q1427.91 152.889 1428.01 152.852Q1428.1 152.816 1428.18 152.771Q1428.27 152.726 1428.35 152.672Q1428.43 152.619 1428.51 152.558Q1428.58 152.497 1428.65 152.429Q1428.72 152.36 1428.78 152.285Q1428.84 152.21 1428.89 152.129Q1428.95 152.048 1428.99 151.961Q1429.04 151.875 1429.07 151.783Q1429.11 151.692 1429.14 151.597Q1429.17 151.501 1429.19 151.403Q1429.2 151.304 1429.21 151.203Q1429.22 151.103 1429.22 151L1429.22 -82Q1429.22 -82.1025 1429.21 -82.2034Q1429.2 -82.3044 1429.19 -82.4029Q1429.17 -82.5014 1429.14 -82.5967Q1429.11 -82.692 1429.07 -82.7833Q1429.04 -82.8747 1428.99 -82.9613Q1428.95 -83.0478 1428.89 -83.129Q1428.84 -83.2101 1428.78 -83.2852Q1428.72 -83.3602 1428.65 -83.4286Q1428.58 -83.4969 1428.51 -83.558Q1428.43 -83.6191 1428.35 -83.6723Q1428.27 -83.7257 1428.18 -83.7708Q1428.1 -83.8158 1428.01 -83.8524Q1427.91 -83.8889 1427.82 -83.9166Q1427.72 -83.9442 1427.63 -83.9628Q1427.53 -83.9814 1427.43 -83.9907Q1427.32 -84 1427.22 -84Z" clip-rule="evenodd"/>
		</clipPath>
	</defs>
	<g clip-path="url(#clip_3)">
		<path fill="rgb(0,0,0)" stroke="none" transform="translate(36.7426 54.1671)" d="M8.78394e-13 -8.78394e-13L-1.59346 -1.59346L7.42067 -10.6076L9.01413 -9.01413L8.78394e-13 -8.78394e-13Z"/>
	</g>
	<defs>
		<clipPath id="clip_4">
			<path d="M1427.22 -84L-228.778 -84Q-228.88 -84 -228.981 -83.9907Q-229.082 -83.9814 -229.181 -83.9628Q-229.279 -83.9442 -229.375 -83.9166Q-229.47 -83.8889 -229.561 -83.8524Q-229.652 -83.8158 -229.739 -83.7708Q-229.826 -83.7257 -229.907 -83.6723Q-229.988 -83.6191 -230.063 -83.558Q-230.138 -83.4969 -230.206 -83.4286Q-230.275 -83.3602 -230.336 -83.2852Q-230.397 -83.2101 -230.45 -83.129Q-230.503 -83.0478 -230.549 -82.9613Q-230.594 -82.8747 -230.63 -82.7833Q-230.667 -82.692 -230.694 -82.5967Q-230.722 -82.5014 -230.741 -82.4029Q-230.759 -82.3044 -230.768 -82.2034Q-230.778 -82.1025 -230.778 -82L-230.778 151Q-230.778 151.103 -230.768 151.203Q-230.759 151.304 -230.741 151.403Q-230.722 151.501 -230.694 151.597Q-230.667 151.692 -230.63 151.783Q-230.594 151.875 -230.549 151.961Q-230.503 152.048 -230.45 152.129Q-230.397 152.21 -230.336 152.285Q-230.275 152.36 -230.206 152.429Q-230.138 152.497 -230.063 152.558Q-229.988 152.619 -229.907 152.672Q-229.826 152.726 -229.739 152.771Q-229.652 152.816 -229.561 152.852Q-229.47 152.889 -229.375 152.917Q-229.279 152.944 -229.181 152.963Q-229.082 152.981 -228.981 152.991Q-228.88 153 -228.778 153L1427.22 153Q1427.32 153 1427.43 152.991Q1427.53 152.981 1427.63 152.963Q1427.72 152.944 1427.82 152.917Q1427.91 152.889 1428.01 152.852Q1428.1 152.816 1428.18 152.771Q1428.27 152.726 1428.35 152.672Q1428.43 152.619 1428.51 152.558Q1428.58 152.497 1428.65 152.429Q1428.72 152.36 1428.78 152.285Q1428.84 152.21 1428.89 152.129Q1428.95 152.048 1428.99 151.961Q1429.04 151.875 1429.07 151.783Q1429.11 151.692 1429.14 151.597Q1429.17 151.501 1429.19 151.403Q1429.2 151.304 1429.21 151.203Q1429.22 151.103 1429.22 151L1429.22 -82Q1429.22 -82.1025 1429.21 -82.2034Q1429.2 -82.3044 1429.19 -82.4029Q1429.17 -82.5014 1429.14 -82.5967Q1429.11 -82.692 1429.07 -82.7833Q1429.04 -82.8747 1428.99 -82.9613Q1428.95 -83.0478 1428.89 -83.129Q1428.84 -83.2101 1428.78 -83.2852Q1428.72 -83.3602 1428.65 -83.4286Q1428.58 -83.4969 1428.51 -83.558Q1428.43 -83.6191 1428.35 -83.6723Q1428.27 -83.7257 1428.18 -83.7708Q1428.1 -83.8158 1428.01 -83.8524Q1427.91 -83.8889 1427.82 -83.9166Q1427.72 -83.9442 1427.63 -83.9628Q1427.53 -83.9814 1427.43 -83.9907Q1427.32 -84 1427.22 -84Z" clip-rule="evenodd"/>
		</clipPath>
	</defs>
	<g clip-path="url(#clip_4)">
		<path fill="rgb(0,0,0)" stroke="none" transform="translate(36.7454 49.3837)" d="M4.08844e-12 5.83975e-12L-1.59346 -1.59346L0.659695 -3.84662L2.25316 -2.25316L4.08844e-12 5.83975e-12Z"/>
	</g>

</svg>