<?xml version="1.0" encoding="utf-8" ?>
<svg xmlns="http://www.w3.org/2000/svg" xmlns:xlink="http://www.w3.org/1999/xlink" width="70" height="70">
	<defs>
		<clipPath id="clip_0">
			<path d="M778.222 -84L-877.778 -84Q-877.88 -84 -877.981 -83.9907Q-878.082 -83.9814 -878.181 -83.9628Q-878.279 -83.9442 -878.375 -83.9166Q-878.47 -83.8889 -878.561 -83.8524Q-878.652 -83.8158 -878.739 -83.7708Q-878.826 -83.7257 -878.907 -83.6723Q-878.988 -83.6191 -879.063 -83.558Q-879.138 -83.4969 -879.206 -83.4286Q-879.275 -83.3602 -879.336 -83.2852Q-879.397 -83.2101 -879.45 -83.129Q-879.504 -83.0478 -879.549 -82.9613Q-879.594 -82.8747 -879.63 -82.7833Q-879.667 -82.692 -879.694 -82.5967Q-879.722 -82.5014 -879.741 -82.4029Q-879.759 -82.3044 -879.769 -82.2034Q-879.778 -82.1025 -879.778 -82L-879.778 151Q-879.778 151.103 -879.768 151.203Q-879.759 151.304 -879.741 151.403Q-879.722 151.501 -879.694 151.597Q-879.667 151.692 -879.63 151.783Q-879.594 151.875 -879.549 151.961Q-879.504 152.048 -879.45 152.129Q-879.397 152.21 -879.336 152.285Q-879.275 152.36 -879.206 152.429Q-879.138 152.497 -879.063 152.558Q-878.988 152.619 -878.907 152.672Q-878.826 152.726 -878.739 152.771Q-878.653 152.816 -878.561 152.852Q-878.47 152.889 -878.375 152.917Q-878.279 152.944 -878.181 152.963Q-878.082 152.981 -877.981 152.991Q-877.88 153 -877.778 153L778.222 153Q778.325 153 778.426 152.991Q778.527 152.981 778.625 152.963Q778.724 152.944 778.819 152.917Q778.914 152.889 779.006 152.852Q779.097 152.816 779.184 152.771Q779.27 152.726 779.351 152.672Q779.432 152.619 779.507 152.558Q779.583 152.497 779.651 152.429Q779.719 152.36 779.78 152.285Q779.841 152.21 779.895 152.129Q779.948 152.048 779.993 151.961Q780.038 151.875 780.075 151.783Q780.111 151.692 780.139 151.597Q780.167 151.501 780.185 151.403Q780.204 151.304 780.213 151.203Q780.222 151.103 780.222 151L780.222 -82Q780.222 -82.1025 780.213 -82.2034Q780.204 -82.3044 780.185 -82.4029Q780.167 -82.5014 780.139 -82.5967Q780.111 -82.692 780.075 -82.7833Q780.038 -82.8747 779.993 -82.9613Q779.948 -83.0478 779.895 -83.129Q779.841 -83.2101 779.78 -83.2852Q779.719 -83.3602 779.651 -83.4286Q779.583 -83.4969 779.507 -83.558Q779.432 -83.6191 779.351 -83.6723Q779.27 -83.7257 779.184 -83.7708Q779.097 -83.8158 779.006 -83.8524Q778.914 -83.8889 778.819 -83.9166Q778.724 -83.9442 778.625 -83.9628Q778.527 -83.9814 778.426 -83.9907Q778.325 -84 778.222 -84Z" clip-rule="evenodd"/>
		</clipPath>
	</defs>
	<g clip-path="url(#clip_0)">
		<path fill="rgb(0,0,0)" stroke="none" transform="translate(0.222229 0)" d="M67.7419 60.9677C67.7419 61.1676 67.7284 61.3674 67.7013 61.5639C69.0945 62.3508 70 63.8389 70 65.4839C70 67.9745 67.9745 70 65.4839 70C64.6879 70 63.9111 69.7855 63.2258 69.3835C62.5405 69.7855 61.7637 70 60.9677 70C58.4771 70 56.4516 67.9745 56.4516 65.4839C56.4516 63.8389 57.3571 62.3508 58.7503 61.5639C58.7232 61.3674 58.7097 61.1676 58.7097 60.9677C58.7097 60.5692 58.7774 60.1898 58.8756 59.8218C58.8192 59.824 58.7661 59.8387 58.7097 59.8387C57.9137 59.8387 57.1369 59.6242 56.4516 59.2223C55.7663 59.6242 54.9895 59.8387 54.1935 59.8387C54.1371 59.8387 54.084 59.824 54.0276 59.8218C54.1258 60.1898 54.1935 60.5692 54.1935 60.9677C54.1935 61.1676 54.18 61.3674 54.1529 61.5639C55.5461 62.3508 56.4516 63.8389 56.4516 65.4839C56.4516 67.9745 54.4261 70 51.9355 70C51.1395 70 50.3627 69.7855 49.6774 69.3835C48.9921 69.7855 48.2153 70 47.4194 70C44.9287 70 42.9032 67.9745 42.9032 65.4839C42.9032 63.8389 43.8087 62.3508 45.2019 61.5639C45.1748 61.3674 45.1613 61.1676 45.1613 60.9677C45.1613 60.5692 45.229 60.1898 45.3273 59.8218C45.2708 59.824 45.2177 59.8387 45.1613 59.8387C44.4432 59.8387 43.7444 59.6558 43.1098 59.3261L41.6274 70L5.79081 70L0 28.2258C0 25.3547 1.79742 22.9013 4.32419 21.9168C3.745 21.1581 3.3871 20.221 3.3871 19.1935C3.3871 17.5485 4.29258 16.0605 5.68581 15.2735C5.65871 15.0771 5.64516 14.8773 5.64516 14.6774C5.64516 12.1868 7.67065 10.1613 10.1613 10.1613C10.2177 10.1613 10.2708 10.176 10.3273 10.1782C10.229 9.81016 10.1613 9.43081 10.1613 9.03226C10.1613 7.38726 11.0668 5.89919 12.46 5.11226C12.4329 4.91581 12.4194 4.71597 12.4194 4.51613C12.4194 2.02548 14.4448 0 16.9355 0C19.4261 0 21.4516 2.02548 21.4516 4.51613C21.4516 4.71597 21.4381 4.91581 21.411 5.11226C22.8042 5.89919 23.7097 7.38726 23.7097 9.03226C23.7097 9.43081 23.6419 9.81016 23.5437 10.1782C23.6002 10.176 23.6532 10.1613 23.7097 10.1613C23.7661 10.1613 23.8192 10.176 23.8756 10.1782C23.7774 9.81016 23.7097 9.43081 23.7097 9.03226C23.7097 7.38726 24.6152 5.89919 26.0084 5.11226C25.9813 4.91581 25.9677 4.71597 25.9677 4.51613C25.9677 2.02548 27.9932 0 30.4839 0C32.9745 0 35 2.02548 35 4.51613C35 4.71597 34.9865 4.91581 34.9594 5.11226C36.3526 5.89919 37.2581 7.38726 37.2581 9.03226C37.2581 9.43081 37.1903 9.81016 37.0921 10.1782C37.1485 10.176 37.2016 10.1613 37.2581 10.1613C39.7487 10.1613 41.7742 12.1868 41.7742 14.6774C41.7742 14.8773 41.7606 15.0771 41.7335 15.2735C43.1268 16.0605 44.0323 17.5485 44.0323 19.1935C44.0323 20.221 43.6744 21.1581 43.0952 21.9168C45.6219 22.9013 47.4194 25.3547 47.4194 28.2258L47.4081 28.3816L46.0803 37.9434C46.9056 36.8482 48.204 36.129 49.6774 36.129C52.1681 36.129 54.1935 38.1545 54.1935 40.6452C54.1935 40.845 54.18 41.0448 54.1529 41.2413C55.5461 42.0282 56.4516 43.5163 56.4516 45.1613C56.4516 45.5598 56.3839 45.9392 56.2856 46.3073C56.3421 46.305 56.3952 46.2903 56.4516 46.2903C58.9423 46.2903 60.9677 48.3158 60.9677 50.8065C60.9677 51.0063 60.9542 51.2061 60.9271 51.4026C62.3203 52.1895 63.2258 53.6776 63.2258 55.3226C63.2258 55.7211 63.1581 56.1005 63.0598 56.4685C63.1163 56.4663 63.1694 56.4516 63.2258 56.4516C65.7165 56.4516 67.7419 58.4771 67.7419 60.9677ZM14.0915 6.86452L15.3176 6.53258L14.8434 5.35387C14.7339 5.07952 14.6774 4.79726 14.6774 4.51613C14.6774 3.27081 15.6902 2.25806 16.9355 2.25806C18.1808 2.25806 19.1935 3.27081 19.1935 4.51613C19.1935 4.79726 19.1371 5.07952 19.0276 5.35387L18.5534 6.53258L19.7795 6.86452C20.764 7.13097 21.4516 8.0229 21.4516 9.03226C21.4516 10.2776 20.4389 11.2903 19.1935 11.2903C18.4924 11.2903 17.99 10.9708 17.6908 10.7021L16.9355 10.0213L16.1802 10.7021C15.881 10.9708 15.3785 11.2903 14.6774 11.2903C13.4321 11.2903 12.4194 10.2776 12.4194 9.03226C12.4194 8.0229 13.1069 7.13097 14.0915 6.86452ZM28.866 6.53258L27.6398 6.86452C26.6553 7.13097 25.9677 8.0229 25.9677 9.03226C25.9677 10.2776 26.9805 11.2903 28.2258 11.2903C28.9269 11.2903 29.4294 10.9708 29.7285 10.7021L30.4839 10.0213L31.2392 10.7021C31.5384 10.9708 32.0408 11.2903 32.7419 11.2903C33.9873 11.2903 35 10.2776 35 9.03226C35 8.0229 34.3124 7.13097 33.3279 6.86452L32.1018 6.53258L32.576 5.35387C32.6855 5.07952 32.7419 4.79726 32.7419 4.51613C32.7419 3.27081 31.7292 2.25806 30.4839 2.25806C29.2385 2.25806 28.2258 3.27081 28.2258 4.51613C28.2258 4.79726 28.2823 5.07952 28.3918 5.35387L28.866 6.53258ZM8.54339 16.6939L7.31726 17.0258C6.33274 17.2923 5.64516 18.1842 5.64516 19.1935C5.64516 20.4389 6.6579 21.4516 7.90323 21.4516C8.60435 21.4516 9.10677 21.1321 9.40597 20.8634L10.1613 20.1826L10.9166 20.8634C11.2158 21.1321 11.7182 21.4516 12.4194 21.4516C13.6647 21.4516 14.6774 20.4389 14.6774 19.1935C14.6774 18.1842 13.9898 17.2923 13.0053 17.0258L11.7792 16.6939L12.2534 15.5152C12.3629 15.2408 12.4194 14.9585 12.4194 14.6774C12.4194 13.4321 11.4066 12.4194 10.1613 12.4194C8.91597 12.4194 7.90323 13.4321 7.90323 14.6774C7.90323 14.9585 7.95968 15.2408 8.06919 15.5152L8.54339 16.6939ZM23.7097 12.4194C24.955 12.4194 25.9677 13.4321 25.9677 14.6774C25.9677 14.9585 25.9113 15.2408 25.8018 15.5152L25.3276 16.6939L26.5537 17.0258C27.5382 17.2923 28.2258 18.1842 28.2258 19.1935C28.2258 20.4389 27.2131 21.4516 25.9677 21.4516C25.2666 21.4516 24.7642 21.1321 24.465 20.8634L23.7097 20.1826L22.9544 20.8634C22.6552 21.1321 22.1527 21.4516 21.4516 21.4516C20.2063 21.4516 19.1935 20.4389 19.1935 19.1935C19.1935 18.1842 19.8811 17.2923 20.8656 17.0258L22.0918 16.6939L21.6176 15.5152C21.5081 15.2408 21.4516 14.9585 21.4516 14.6774C21.4516 13.4321 22.4644 12.4194 23.7097 12.4194ZM37.2581 12.4194C38.5034 12.4194 39.5161 13.4321 39.5161 14.6774C39.5161 14.9585 39.4597 15.2408 39.3502 15.5152L38.876 16.6939L40.1021 17.0258C41.0866 17.2923 41.7742 18.1842 41.7742 19.1935C41.7742 20.4389 40.7615 21.4516 39.5161 21.4516C38.815 21.4516 38.3126 21.1321 38.0134 20.8634L37.2581 20.1826L36.5027 20.8634C36.2035 21.1321 35.7011 21.4516 35 21.4516C33.7547 21.4516 32.7419 20.4389 32.7419 19.1935C32.7419 18.1842 33.4295 17.2923 34.414 17.0258L35.6402 16.6939L35.166 15.5152C35.0564 15.2408 35 14.9585 35 14.6774C35 13.4321 36.0127 12.4194 37.2581 12.4194ZM14.5115 13.5315C14.5679 13.5337 14.621 13.5484 14.6774 13.5484C15.4734 13.5484 16.2502 13.3339 16.9355 12.9319C17.6208 13.3339 18.3976 13.5484 19.1935 13.5484C19.25 13.5484 19.3031 13.5337 19.3595 13.5315C19.2613 13.8995 19.1935 14.2789 19.1935 14.6774C19.1935 14.8773 19.2071 15.0771 19.2342 15.2735C17.841 16.0605 16.9355 17.5485 16.9355 19.1936C16.9355 17.5485 16.03 16.0605 14.6368 15.2735C14.6639 15.0771 14.6774 14.8773 14.6774 14.6774C14.6774 14.2789 14.6097 13.8995 14.5115 13.5315ZM16.9355 19.1936C16.9355 20.0324 17.1805 20.8092 17.5802 21.4821C17.0845 21.5171 16.6047 21.6029 16.144 21.7384C16.6419 21.0135 16.9355 20.1374 16.9355 19.1936ZM28.2258 13.5484C28.1694 13.5484 28.1163 13.5337 28.0598 13.5315C28.1581 13.8995 28.2258 14.2789 28.2258 14.6774C28.2258 14.8773 28.2123 15.0771 28.1852 15.2735C29.5784 16.0605 30.4839 17.5485 30.4839 19.1936C30.4839 20.0324 30.2389 20.8092 29.8392 21.4832C30.3337 21.5182 30.8135 21.6029 31.2742 21.7395C30.7774 21.0135 30.4839 20.1374 30.4839 19.1936C30.4839 17.5485 31.3894 16.0605 32.7826 15.2735C32.7555 15.0771 32.7419 14.8773 32.7419 14.6774C32.7419 14.2789 32.8097 13.8995 32.9079 13.5315C32.8515 13.5337 32.7984 13.5484 32.7419 13.5484C31.946 13.5484 31.1692 13.3339 30.4839 12.9319C29.7985 13.3339 29.0218 13.5484 28.2258 13.5484ZM23.7097 24.4853C23.9547 24.1161 24.2437 23.7808 24.5542 23.4681C24.2618 23.3698 23.9773 23.2502 23.7097 23.0932C23.441 23.2502 23.1565 23.3698 22.8652 23.4681C23.1756 23.7819 23.4647 24.1161 23.7097 24.4853ZM13.0956 23.6408C12.8506 23.9554 12.6192 24.2834 12.4194 24.6408C12.2229 24.2901 11.996 23.9674 11.7566 23.6582C11.9756 23.697 12.1958 23.7225 12.4194 23.7225C12.6508 23.7225 12.8732 23.681 13.0956 23.6408ZM34.3237 23.6419C34.5676 23.9565 34.8002 24.2845 35 24.6419C35.1965 24.2899 35.4234 23.9672 35.6627 23.658C35.4448 23.6968 35.2235 23.7223 35 23.7223C34.7686 23.7223 34.5461 23.6808 34.3237 23.6419ZM2.25806 28.1524L7.75758 67.7419L14.5792 67.7419L13.5856 55.816C10.1161 53.5364 7.90323 50.1132 7.90323 46.2903C7.90323 43.0534 9.50081 40.1111 12.0919 37.8982L11.2937 28.3195L11.2937 28.2258L11.2903 28.2258C11.2903 25.7352 9.26484 23.7097 6.77419 23.7097C4.30839 23.7097 2.29871 25.6956 2.25806 28.1524ZM22.5806 28.2258C22.5806 25.7352 20.5552 23.7097 18.0645 23.7097C15.5739 23.7097 13.5484 25.7352 13.5484 28.2258L14.2303 36.3763C16.5923 34.9785 19.4589 34.0911 22.5806 33.9161L22.5806 28.2258ZM29.3548 23.7097C31.841 23.7097 33.8631 25.7284 33.8698 28.2145L33.4092 36.5061C31.0077 35.0327 28.0576 34.0956 24.8387 33.9161L24.8387 28.2258C24.8387 25.7352 26.8642 23.7097 29.3548 23.7097ZM42.6379 46.3174L45.1613 28.1524C45.1206 25.6956 43.111 23.7097 40.6452 23.7097C38.1545 23.7097 36.129 25.7352 36.129 28.2258L35.5815 38.1173C38.0224 40.3042 39.5161 43.1595 39.5161 46.2903C39.5161 46.8966 39.4416 47.4882 39.3355 48.0708C40.11 47.0637 41.291 46.3976 42.6379 46.3174ZM23.7097 36.129C16.2389 36.129 10.1613 40.6869 10.1613 46.2903C10.1613 51.8937 16.2389 56.4516 23.7097 56.4516C31.1805 56.4516 37.2581 51.8937 37.2581 46.2903C37.2581 40.6869 31.1805 36.129 23.7097 36.129ZM48.0595 42.6616L46.8334 42.9935C45.8489 43.26 45.1613 44.1519 45.1613 45.1613C45.1613 46.4066 46.174 47.4194 47.4194 47.4194C48.1205 47.4194 48.6229 47.0998 48.9221 46.8311L49.6774 46.1503L50.4327 46.8311C50.7319 47.0998 51.2344 47.4194 51.9355 47.4194C53.1808 47.4194 54.1935 46.4066 54.1935 45.1613C54.1935 44.1519 53.506 43.26 52.5215 42.9935L51.2953 42.6616L51.7695 41.4829C51.879 41.2085 51.9355 40.9263 51.9355 40.6452C51.9355 39.3998 50.9227 38.3871 49.6774 38.3871C48.4321 38.3871 47.4194 39.3998 47.4194 40.6452C47.4194 40.9263 47.4758 41.2085 47.5853 41.4829L48.0595 42.6616ZM45.1613 57.5806C44.4602 57.5806 43.9577 57.2611 43.6585 56.9924L42.9032 56.3116L42.1479 56.9924C41.8487 57.2611 41.3463 57.5806 40.6452 57.5806C39.3998 57.5806 38.3871 56.5679 38.3871 55.3226C38.3871 54.3132 39.0747 53.4213 40.0592 53.1548L41.2853 52.8229L40.8111 51.6442C40.7016 51.3698 40.6452 51.0876 40.6452 50.8064C40.6452 49.5611 41.6579 48.5484 42.9032 48.5484C44.1485 48.5484 45.1613 49.5611 45.1613 50.8064C45.1613 51.0876 45.1048 51.3698 44.9953 51.6442L44.5211 52.8229L45.7473 53.1548C46.7318 53.4213 47.4194 54.3132 47.4194 55.3226C47.4194 56.5679 46.4066 57.5806 45.1613 57.5806ZM58.7097 57.5806C58.0085 57.5806 57.5061 57.2611 57.2069 56.9924L56.4516 56.3116L55.6963 56.9924C55.3971 57.2611 54.8947 57.5806 54.1935 57.5806C52.9482 57.5806 51.9355 56.5679 51.9355 55.3226C51.9355 54.3132 52.6231 53.4213 53.6076 53.1548L54.8337 52.8229L54.3595 51.6442C54.25 51.3698 54.1935 51.0876 54.1935 50.8064C54.1935 49.5611 55.2063 48.5484 56.4516 48.5484C57.6969 48.5484 58.7097 49.5611 58.7097 50.8064C58.7097 51.0876 58.6532 51.3698 58.5437 51.6442L58.0695 52.8229L59.2956 53.1548C60.2802 53.4213 60.9677 54.3132 60.9677 55.3226C60.9677 56.5679 59.955 57.5806 58.7097 57.5806ZM51.9761 51.4026C50.5829 52.1895 49.6774 53.6776 49.6774 55.3226C49.6774 53.6776 48.7719 52.1895 47.3787 51.4026C47.4058 51.2061 47.4194 51.0063 47.4194 50.8064C47.4194 50.4079 47.3516 50.0285 47.2534 49.6605C47.3098 49.6627 47.3629 49.6774 47.4194 49.6774C48.2153 49.6774 48.9921 49.4629 49.6774 49.061C50.3627 49.4629 51.1395 49.6774 51.9355 49.6774C51.9919 49.6774 52.045 49.6627 52.1015 49.6605C52.0032 50.0285 51.9355 50.4079 51.9355 50.8064C51.9355 51.0063 51.949 51.2061 51.9761 51.4026ZM49.6774 55.3226C49.6774 55.7211 49.7452 56.1005 49.8434 56.4685C49.7869 56.4663 49.7339 56.4516 49.6774 56.4516C49.621 56.4516 49.5679 56.4663 49.5115 56.4685C49.6097 56.1005 49.6774 55.7211 49.6774 55.3226ZM38.8621 51.4479C38.5088 51.5703 38.1775 51.7123 37.8621 51.864C38.1994 51.5372 38.5148 51.2055 38.7962 50.864C38.8022 51.0599 38.8202 51.2557 38.8621 51.4479ZM33.9353 67.7419L39.6618 67.7419L40.7603 59.8308C40.7219 59.8319 40.6835 59.8387 40.6452 59.8387C38.1545 59.8387 36.129 57.8132 36.129 55.3226C36.129 54.7073 36.2555 54.1145 36.4881 53.5703C35.9314 54.171 35.3127 54.7332 34.6319 55.2458L34.6206 55.4016L33.9353 67.7419ZM31.6739 67.7419L24.8387 67.7419L24.8387 58.6645C27.5732 58.5121 30.1158 57.8155 32.2926 56.7045L31.6739 67.7419ZM22.5806 67.7419L16.8452 67.7419L15.9589 57.1019C17.9415 57.9826 20.1882 58.5313 22.5806 58.6645L22.5806 67.7419ZM51.9355 67.7419C53.1808 67.7419 54.1935 66.7292 54.1935 65.4839C54.1935 64.4745 53.506 63.5826 52.5215 63.3161L51.2953 62.9842L51.7695 61.8055C51.879 61.5311 51.9355 61.2489 51.9355 60.9677C51.9355 59.7224 50.9227 58.7097 49.6774 58.7097C48.4321 58.7097 47.4194 59.7224 47.4194 60.9677C47.4194 61.2489 47.4758 61.5311 47.5853 61.8055L48.0595 62.9842L46.8334 63.3161C45.8489 63.5826 45.1613 64.4745 45.1613 65.4839C45.1613 66.7292 46.174 67.7419 47.4194 67.7419C48.1205 67.7419 48.6229 67.4224 48.9221 67.1537L49.6774 66.4729L50.4327 67.1537C50.7319 67.4224 51.2344 67.7419 51.9355 67.7419ZM63.9811 67.1537C64.2803 67.4224 64.7827 67.7419 65.4839 67.7419C66.7292 67.7419 67.7419 66.7292 67.7419 65.4839C67.7419 64.4745 67.0544 63.5826 66.0698 63.3161L64.8437 62.9842L65.3179 61.8055C65.4274 61.5311 65.4839 61.2489 65.4839 60.9677C65.4839 59.7224 64.4711 58.7097 63.2258 58.7097C61.9805 58.7097 60.9677 59.7224 60.9677 60.9677C60.9677 61.2489 61.0242 61.5311 61.1337 61.8055L61.6079 62.9842L60.3818 63.3161C59.3973 63.5826 58.7097 64.4745 58.7097 65.4839C58.7097 66.7292 59.7224 67.7419 60.9677 67.7419C61.6689 67.7419 62.1713 67.4224 62.4705 67.1537L63.2258 66.4729L63.9811 67.1537Z" fill-rule="evenodd"/>
	</g>
	<defs>
		<clipPath id="clip_1">
			<path d="M778.222 -84L-877.778 -84Q-877.88 -84 -877.981 -83.9907Q-878.082 -83.9814 -878.181 -83.9628Q-878.279 -83.9442 -878.375 -83.9166Q-878.47 -83.8889 -878.561 -83.8524Q-878.652 -83.8158 -878.739 -83.7708Q-878.826 -83.7257 -878.907 -83.6723Q-878.988 -83.6191 -879.063 -83.558Q-879.138 -83.4969 -879.206 -83.4286Q-879.275 -83.3602 -879.336 -83.2852Q-879.397 -83.2101 -879.45 -83.129Q-879.504 -83.0478 -879.549 -82.9613Q-879.594 -82.8747 -879.63 -82.7833Q-879.667 -82.692 -879.694 -82.5967Q-879.722 -82.5014 -879.741 -82.4029Q-879.759 -82.3044 -879.769 -82.2034Q-879.778 -82.1025 -879.778 -82L-879.778 151Q-879.778 151.103 -879.768 151.203Q-879.759 151.304 -879.741 151.403Q-879.722 151.501 -879.694 151.597Q-879.667 151.692 -879.63 151.783Q-879.594 151.875 -879.549 151.961Q-879.504 152.048 -879.45 152.129Q-879.397 152.21 -879.336 152.285Q-879.275 152.36 -879.206 152.429Q-879.138 152.497 -879.063 152.558Q-878.988 152.619 -878.907 152.672Q-878.826 152.726 -878.739 152.771Q-878.653 152.816 -878.561 152.852Q-878.47 152.889 -878.375 152.917Q-878.279 152.944 -878.181 152.963Q-878.082 152.981 -877.981 152.991Q-877.88 153 -877.778 153L778.222 153Q778.325 153 778.426 152.991Q778.527 152.981 778.625 152.963Q778.724 152.944 778.819 152.917Q778.914 152.889 779.006 152.852Q779.097 152.816 779.184 152.771Q779.27 152.726 779.351 152.672Q779.432 152.619 779.507 152.558Q779.583 152.497 779.651 152.429Q779.719 152.36 779.78 152.285Q779.841 152.21 779.895 152.129Q779.948 152.048 779.993 151.961Q780.038 151.875 780.075 151.783Q780.111 151.692 780.139 151.597Q780.167 151.501 780.185 151.403Q780.204 151.304 780.213 151.203Q780.222 151.103 780.222 151L780.222 -82Q780.222 -82.1025 780.213 -82.2034Q780.204 -82.3044 780.185 -82.4029Q780.167 -82.5014 780.139 -82.5967Q780.111 -82.692 780.075 -82.7833Q780.038 -82.8747 779.993 -82.9613Q779.948 -83.0478 779.895 -83.129Q779.841 -83.2101 779.78 -83.2852Q779.719 -83.3602 779.651 -83.4286Q779.583 -83.4969 779.507 -83.558Q779.432 -83.6191 779.351 -83.6723Q779.27 -83.7257 779.184 -83.7708Q779.097 -83.8158 779.006 -83.8524Q778.914 -83.8889 778.819 -83.9166Q778.724 -83.9442 778.625 -83.9628Q778.527 -83.9814 778.426 -83.9907Q778.325 -84 778.222 -84Z" clip-rule="evenodd"/>
		</clipPath>
	</defs>
	<g clip-path="url(#clip_1)">
		<path fill="rgb(0,0,0)" stroke="none" transform="translate(14.8997 41.7742)" d="M0 0L18.0645 0L18.0645 2.25806L0 2.25806L0 0Z"/>
	</g>
	<defs>
		<clipPath id="clip_2">
			<path d="M778.222 -84L-877.778 -84Q-877.88 -84 -877.981 -83.9907Q-878.082 -83.9814 -878.181 -83.9628Q-878.279 -83.9442 -878.375 -83.9166Q-878.47 -83.8889 -878.561 -83.8524Q-878.652 -83.8158 -878.739 -83.7708Q-878.826 -83.7257 -878.907 -83.6723Q-878.988 -83.6191 -879.063 -83.558Q-879.138 -83.4969 -879.206 -83.4286Q-879.275 -83.3602 -879.336 -83.2852Q-879.397 -83.2101 -879.45 -83.129Q-879.504 -83.0478 -879.549 -82.9613Q-879.594 -82.8747 -879.63 -82.7833Q-879.667 -82.692 -879.694 -82.5967Q-879.722 -82.5014 -879.741 -82.4029Q-879.759 -82.3044 -879.769 -82.2034Q-879.778 -82.1025 -879.778 -82L-879.778 151Q-879.778 151.103 -879.768 151.203Q-879.759 151.304 -879.741 151.403Q-879.722 151.501 -879.694 151.597Q-879.667 151.692 -879.63 151.783Q-879.594 151.875 -879.549 151.961Q-879.504 152.048 -879.45 152.129Q-879.397 152.21 -879.336 152.285Q-879.275 152.36 -879.206 152.429Q-879.138 152.497 -879.063 152.558Q-878.988 152.619 -878.907 152.672Q-878.826 152.726 -878.739 152.771Q-878.653 152.816 -878.561 152.852Q-878.47 152.889 -878.375 152.917Q-878.279 152.944 -878.181 152.963Q-878.082 152.981 -877.981 152.991Q-877.88 153 -877.778 153L778.222 153Q778.325 153 778.426 152.991Q778.527 152.981 778.625 152.963Q778.724 152.944 778.819 152.917Q778.914 152.889 779.006 152.852Q779.097 152.816 779.184 152.771Q779.27 152.726 779.351 152.672Q779.432 152.619 779.507 152.558Q779.583 152.497 779.651 152.429Q779.719 152.36 779.78 152.285Q779.841 152.21 779.895 152.129Q779.948 152.048 779.993 151.961Q780.038 151.875 780.075 151.783Q780.111 151.692 780.139 151.597Q780.167 151.501 780.185 151.403Q780.204 151.304 780.213 151.203Q780.222 151.103 780.222 151L780.222 -82Q780.222 -82.1025 780.213 -82.2034Q780.204 -82.3044 780.185 -82.4029Q780.167 -82.5014 780.139 -82.5967Q780.111 -82.692 780.075 -82.7833Q780.038 -82.8747 779.993 -82.9613Q779.948 -83.0478 779.895 -83.129Q779.841 -83.2101 779.78 -83.2852Q779.719 -83.3602 779.651 -83.4286Q779.583 -83.4969 779.507 -83.558Q779.432 -83.6191 779.351 -83.6723Q779.27 -83.7257 779.184 -83.7708Q779.097 -83.8158 779.006 -83.8524Q778.914 -83.8889 778.819 -83.9166Q778.724 -83.9442 778.625 -83.9628Q778.527 -83.9814 778.426 -83.9907Q778.325 -84 778.222 -84Z" clip-rule="evenodd"/>
		</clipPath>
	</defs>
	<g clip-path="url(#clip_2)">
		<path fill="rgb(0,0,0)" stroke="none" transform="translate(30.7061 48.5484)" d="M0 0L2.25806 0L2.25806 2.25806L0 2.25806L0 0Z"/>
	</g>
	<defs>
		<clipPath id="clip_3">
			<path d="M778.222 -84L-877.778 -84Q-877.88 -84 -877.981 -83.9907Q-878.082 -83.9814 -878.181 -83.9628Q-878.279 -83.9442 -878.375 -83.9166Q-878.47 -83.8889 -878.561 -83.8524Q-878.652 -83.8158 -878.739 -83.7708Q-878.826 -83.7257 -878.907 -83.6723Q-878.988 -83.6191 -879.063 -83.558Q-879.138 -83.4969 -879.206 -83.4286Q-879.275 -83.3602 -879.336 -83.2852Q-879.397 -83.2101 -879.45 -83.129Q-879.504 -83.0478 -879.549 -82.9613Q-879.594 -82.8747 -879.63 -82.7833Q-879.667 -82.692 -879.694 -82.5967Q-879.722 -82.5014 -879.741 -82.4029Q-879.759 -82.3044 -879.769 -82.2034Q-879.778 -82.1025 -879.778 -82L-879.778 151Q-879.778 151.103 -879.768 151.203Q-879.759 151.304 -879.741 151.403Q-879.722 151.501 -879.694 151.597Q-879.667 151.692 -879.63 151.783Q-879.594 151.875 -879.549 151.961Q-879.504 152.048 -879.45 152.129Q-879.397 152.21 -879.336 152.285Q-879.275 152.36 -879.206 152.429Q-879.138 152.497 -879.063 152.558Q-878.988 152.619 -878.907 152.672Q-878.826 152.726 -878.739 152.771Q-878.653 152.816 -878.561 152.852Q-878.47 152.889 -878.375 152.917Q-878.279 152.944 -878.181 152.963Q-878.082 152.981 -877.981 152.991Q-877.88 153 -877.778 153L778.222 153Q778.325 153 778.426 152.991Q778.527 152.981 778.625 152.963Q778.724 152.944 778.819 152.917Q778.914 152.889 779.006 152.852Q779.097 152.816 779.184 152.771Q779.27 152.726 779.351 152.672Q779.432 152.619 779.507 152.558Q779.583 152.497 779.651 152.429Q779.719 152.36 779.78 152.285Q779.841 152.21 779.895 152.129Q779.948 152.048 779.993 151.961Q780.038 151.875 780.075 151.783Q780.111 151.692 780.139 151.597Q780.167 151.501 780.185 151.403Q780.204 151.304 780.213 151.203Q780.222 151.103 780.222 151L780.222 -82Q780.222 -82.1025 780.213 -82.2034Q780.204 -82.3044 780.185 -82.4029Q780.167 -82.5014 780.139 -82.5967Q780.111 -82.692 780.075 -82.7833Q780.038 -82.8747 779.993 -82.9613Q779.948 -83.0478 779.895 -83.129Q779.841 -83.2101 779.78 -83.2852Q779.719 -83.3602 779.651 -83.4286Q779.583 -83.4969 779.507 -83.558Q779.432 -83.6191 779.351 -83.6723Q779.27 -83.7257 779.184 -83.7708Q779.097 -83.8158 779.006 -83.8524Q778.914 -83.8889 778.819 -83.9166Q778.724 -83.9442 778.625 -83.9628Q778.527 -83.9814 778.426 -83.9907Q778.325 -84 778.222 -84Z" clip-rule="evenodd"/>
		</clipPath>
	</defs>
	<g clip-path="url(#clip_3)">
		<path fill="rgb(0,0,0)" stroke="none" transform="translate(14.8997 48.5484)" d="M0 0L13.5484 0L13.5484 2.25806L0 2.25806L0 0Z"/>
	</g>
	<defs>
		<clipPath id="clip_4">
			<path d="M778.222 -84L-877.778 -84Q-877.88 -84 -877.981 -83.9907Q-878.082 -83.9814 -878.181 -83.9628Q-878.279 -83.9442 -878.375 -83.9166Q-878.47 -83.8889 -878.561 -83.8524Q-878.652 -83.8158 -878.739 -83.7708Q-878.826 -83.7257 -878.907 -83.6723Q-878.988 -83.6191 -879.063 -83.558Q-879.138 -83.4969 -879.206 -83.4286Q-879.275 -83.3602 -879.336 -83.2852Q-879.397 -83.2101 -879.45 -83.129Q-879.504 -83.0478 -879.549 -82.9613Q-879.594 -82.8747 -879.63 -82.7833Q-879.667 -82.692 -879.694 -82.5967Q-879.722 -82.5014 -879.741 -82.4029Q-879.759 -82.3044 -879.769 -82.2034Q-879.778 -82.1025 -879.778 -82L-879.778 151Q-879.778 151.103 -879.768 151.203Q-879.759 151.304 -879.741 151.403Q-879.722 151.501 -879.694 151.597Q-879.667 151.692 -879.63 151.783Q-879.594 151.875 -879.549 151.961Q-879.504 152.048 -879.45 152.129Q-879.397 152.21 -879.336 152.285Q-879.275 152.36 -879.206 152.429Q-879.138 152.497 -879.063 152.558Q-878.988 152.619 -878.907 152.672Q-878.826 152.726 -878.739 152.771Q-878.653 152.816 -878.561 152.852Q-878.47 152.889 -878.375 152.917Q-878.279 152.944 -878.181 152.963Q-878.082 152.981 -877.981 152.991Q-877.88 153 -877.778 153L778.222 153Q778.325 153 778.426 152.991Q778.527 152.981 778.625 152.963Q778.724 152.944 778.819 152.917Q778.914 152.889 779.006 152.852Q779.097 152.816 779.184 152.771Q779.27 152.726 779.351 152.672Q779.432 152.619 779.507 152.558Q779.583 152.497 779.651 152.429Q779.719 152.36 779.78 152.285Q779.841 152.21 779.895 152.129Q779.948 152.048 779.993 151.961Q780.038 151.875 780.075 151.783Q780.111 151.692 780.139 151.597Q780.167 151.501 780.185 151.403Q780.204 151.304 780.213 151.203Q780.222 151.103 780.222 151L780.222 -82Q780.222 -82.1025 780.213 -82.2034Q780.204 -82.3044 780.185 -82.4029Q780.167 -82.5014 780.139 -82.5967Q780.111 -82.692 780.075 -82.7833Q780.038 -82.8747 779.993 -82.9613Q779.948 -83.0478 779.895 -83.129Q779.841 -83.2101 779.78 -83.2852Q779.719 -83.3602 779.651 -83.4286Q779.583 -83.4969 779.507 -83.558Q779.432 -83.6191 779.351 -83.6723Q779.27 -83.7257 779.184 -83.7708Q779.097 -83.8158 779.006 -83.8524Q778.914 -83.8889 778.819 -83.9166Q778.724 -83.9442 778.625 -83.9628Q778.527 -83.9814 778.426 -83.9907Q778.325 -84 778.222 -84Z" clip-rule="evenodd"/>
		</clipPath>
	</defs>
	<g clip-path="url(#clip_4)">
		<path fill="rgb(0,0,0)" stroke="none" transform="translate(16.0287 6.77417)" d="M0 0L2.25806 0L2.25806 2.25806L0 2.25806L0 0Z"/>
	</g>
	<defs>
		<clipPath id="clip_5">
			<path d="M778.222 -84L-877.778 -84Q-877.88 -84 -877.981 -83.9907Q-878.082 -83.9814 -878.181 -83.9628Q-878.279 -83.9442 -878.375 -83.9166Q-878.47 -83.8889 -878.561 -83.8524Q-878.652 -83.8158 -878.739 -83.7708Q-878.826 -83.7257 -878.907 -83.6723Q-878.988 -83.6191 -879.063 -83.558Q-879.138 -83.4969 -879.206 -83.4286Q-879.275 -83.3602 -879.336 -83.2852Q-879.397 -83.2101 -879.45 -83.129Q-879.504 -83.0478 -879.549 -82.9613Q-879.594 -82.8747 -879.63 -82.7833Q-879.667 -82.692 -879.694 -82.5967Q-879.722 -82.5014 -879.741 -82.4029Q-879.759 -82.3044 -879.769 -82.2034Q-879.778 -82.1025 -879.778 -82L-879.778 151Q-879.778 151.103 -879.768 151.203Q-879.759 151.304 -879.741 151.403Q-879.722 151.501 -879.694 151.597Q-879.667 151.692 -879.63 151.783Q-879.594 151.875 -879.549 151.961Q-879.504 152.048 -879.45 152.129Q-879.397 152.21 -879.336 152.285Q-879.275 152.36 -879.206 152.429Q-879.138 152.497 -879.063 152.558Q-878.988 152.619 -878.907 152.672Q-878.826 152.726 -878.739 152.771Q-878.653 152.816 -878.561 152.852Q-878.47 152.889 -878.375 152.917Q-878.279 152.944 -878.181 152.963Q-878.082 152.981 -877.981 152.991Q-877.88 153 -877.778 153L778.222 153Q778.325 153 778.426 152.991Q778.527 152.981 778.625 152.963Q778.724 152.944 778.819 152.917Q778.914 152.889 779.006 152.852Q779.097 152.816 779.184 152.771Q779.27 152.726 779.351 152.672Q779.432 152.619 779.507 152.558Q779.583 152.497 779.651 152.429Q779.719 152.36 779.78 152.285Q779.841 152.21 779.895 152.129Q779.948 152.048 779.993 151.961Q780.038 151.875 780.075 151.783Q780.111 151.692 780.139 151.597Q780.167 151.501 780.185 151.403Q780.204 151.304 780.213 151.203Q780.222 151.103 780.222 151L780.222 -82Q780.222 -82.1025 780.213 -82.2034Q780.204 -82.3044 780.185 -82.4029Q780.167 -82.5014 780.139 -82.5967Q780.111 -82.692 780.075 -82.7833Q780.038 -82.8747 779.993 -82.9613Q779.948 -83.0478 779.895 -83.129Q779.841 -83.2101 779.78 -83.2852Q779.719 -83.3602 779.651 -83.4286Q779.583 -83.4969 779.507 -83.558Q779.432 -83.6191 779.351 -83.6723Q779.27 -83.7257 779.184 -83.7708Q779.097 -83.8158 779.006 -83.8524Q778.914 -83.8889 778.819 -83.9166Q778.724 -83.9442 778.625 -83.9628Q778.527 -83.9814 778.426 -83.9907Q778.325 -84 778.222 -84Z" clip-rule="evenodd"/>
		</clipPath>
	</defs>
	<g clip-path="url(#clip_5)">
		<path fill="rgb(0,0,0)" stroke="none" transform="translate(29.5771 6.77417)" d="M0 0L2.25806 0L2.25806 2.25806L0 2.25806L0 0Z"/>
	</g>
	<defs>
		<clipPath id="clip_6">
			<path d="M778.222 -84L-877.778 -84Q-877.88 -84 -877.981 -83.9907Q-878.082 -83.9814 -878.181 -83.9628Q-878.279 -83.9442 -878.375 -83.9166Q-878.47 -83.8889 -878.561 -83.8524Q-878.652 -83.8158 -878.739 -83.7708Q-878.826 -83.7257 -878.907 -83.6723Q-878.988 -83.6191 -879.063 -83.558Q-879.138 -83.4969 -879.206 -83.4286Q-879.275 -83.3602 -879.336 -83.2852Q-879.397 -83.2101 -879.45 -83.129Q-879.504 -83.0478 -879.549 -82.9613Q-879.594 -82.8747 -879.63 -82.7833Q-879.667 -82.692 -879.694 -82.5967Q-879.722 -82.5014 -879.741 -82.4029Q-879.759 -82.3044 -879.769 -82.2034Q-879.778 -82.1025 -879.778 -82L-879.778 151Q-879.778 151.103 -879.768 151.203Q-879.759 151.304 -879.741 151.403Q-879.722 151.501 -879.694 151.597Q-879.667 151.692 -879.63 151.783Q-879.594 151.875 -879.549 151.961Q-879.504 152.048 -879.45 152.129Q-879.397 152.21 -879.336 152.285Q-879.275 152.36 -879.206 152.429Q-879.138 152.497 -879.063 152.558Q-878.988 152.619 -878.907 152.672Q-878.826 152.726 -878.739 152.771Q-878.653 152.816 -878.561 152.852Q-878.47 152.889 -878.375 152.917Q-878.279 152.944 -878.181 152.963Q-878.082 152.981 -877.981 152.991Q-877.88 153 -877.778 153L778.222 153Q778.325 153 778.426 152.991Q778.527 152.981 778.625 152.963Q778.724 152.944 778.819 152.917Q778.914 152.889 779.006 152.852Q779.097 152.816 779.184 152.771Q779.27 152.726 779.351 152.672Q779.432 152.619 779.507 152.558Q779.583 152.497 779.651 152.429Q779.719 152.36 779.78 152.285Q779.841 152.21 779.895 152.129Q779.948 152.048 779.993 151.961Q780.038 151.875 780.075 151.783Q780.111 151.692 780.139 151.597Q780.167 151.501 780.185 151.403Q780.204 151.304 780.213 151.203Q780.222 151.103 780.222 151L780.222 -82Q780.222 -82.1025 780.213 -82.2034Q780.204 -82.3044 780.185 -82.4029Q780.167 -82.5014 780.139 -82.5967Q780.111 -82.692 780.075 -82.7833Q780.038 -82.8747 779.993 -82.9613Q779.948 -83.0478 779.895 -83.129Q779.841 -83.2101 779.78 -83.2852Q779.719 -83.3602 779.651 -83.4286Q779.583 -83.4969 779.507 -83.558Q779.432 -83.6191 779.351 -83.6723Q779.27 -83.7257 779.184 -83.7708Q779.097 -83.8158 779.006 -83.8524Q778.914 -83.8889 778.819 -83.9166Q778.724 -83.9442 778.625 -83.9628Q778.527 -83.9814 778.426 -83.9907Q778.325 -84 778.222 -84Z" clip-rule="evenodd"/>
		</clipPath>
	</defs>
	<g clip-path="url(#clip_6)">
		<path fill="rgb(0,0,0)" stroke="none" transform="translate(36.3513 16.9355)" d="M0 0L2.25806 0L2.25806 2.25806L0 2.25806L0 0Z"/>
	</g>
	<defs>
		<clipPath id="clip_7">
			<path d="M778.222 -84L-877.778 -84Q-877.88 -84 -877.981 -83.9907Q-878.082 -83.9814 -878.181 -83.9628Q-878.279 -83.9442 -878.375 -83.9166Q-878.47 -83.8889 -878.561 -83.8524Q-878.652 -83.8158 -878.739 -83.7708Q-878.826 -83.7257 -878.907 -83.6723Q-878.988 -83.6191 -879.063 -83.558Q-879.138 -83.4969 -879.206 -83.4286Q-879.275 -83.3602 -879.336 -83.2852Q-879.397 -83.2101 -879.45 -83.129Q-879.504 -83.0478 -879.549 -82.9613Q-879.594 -82.8747 -879.63 -82.7833Q-879.667 -82.692 -879.694 -82.5967Q-879.722 -82.5014 -879.741 -82.4029Q-879.759 -82.3044 -879.769 -82.2034Q-879.778 -82.1025 -879.778 -82L-879.778 151Q-879.778 151.103 -879.768 151.203Q-879.759 151.304 -879.741 151.403Q-879.722 151.501 -879.694 151.597Q-879.667 151.692 -879.63 151.783Q-879.594 151.875 -879.549 151.961Q-879.504 152.048 -879.45 152.129Q-879.397 152.21 -879.336 152.285Q-879.275 152.36 -879.206 152.429Q-879.138 152.497 -879.063 152.558Q-878.988 152.619 -878.907 152.672Q-878.826 152.726 -878.739 152.771Q-878.653 152.816 -878.561 152.852Q-878.47 152.889 -878.375 152.917Q-878.279 152.944 -878.181 152.963Q-878.082 152.981 -877.981 152.991Q-877.88 153 -877.778 153L778.222 153Q778.325 153 778.426 152.991Q778.527 152.981 778.625 152.963Q778.724 152.944 778.819 152.917Q778.914 152.889 779.006 152.852Q779.097 152.816 779.184 152.771Q779.27 152.726 779.351 152.672Q779.432 152.619 779.507 152.558Q779.583 152.497 779.651 152.429Q779.719 152.36 779.78 152.285Q779.841 152.21 779.895 152.129Q779.948 152.048 779.993 151.961Q780.038 151.875 780.075 151.783Q780.111 151.692 780.139 151.597Q780.167 151.501 780.185 151.403Q780.204 151.304 780.213 151.203Q780.222 151.103 780.222 151L780.222 -82Q780.222 -82.1025 780.213 -82.2034Q780.204 -82.3044 780.185 -82.4029Q780.167 -82.5014 780.139 -82.5967Q780.111 -82.692 780.075 -82.7833Q780.038 -82.8747 779.993 -82.9613Q779.948 -83.0478 779.895 -83.129Q779.841 -83.2101 779.78 -83.2852Q779.719 -83.3602 779.651 -83.4286Q779.583 -83.4969 779.507 -83.558Q779.432 -83.6191 779.351 -83.6723Q779.27 -83.7257 779.184 -83.7708Q779.097 -83.8158 779.006 -83.8524Q778.914 -83.8889 778.819 -83.9166Q778.724 -83.9442 778.625 -83.9628Q778.527 -83.9814 778.426 -83.9907Q778.325 -84 778.222 -84Z" clip-rule="evenodd"/>
		</clipPath>
	</defs>
	<g clip-path="url(#clip_7)">
		<path fill="rgb(0,0,0)" stroke="none" transform="translate(22.8029 16.9355)" d="M0 0L2.25806 0L2.25806 2.25806L0 2.25806L0 0Z"/>
	</g>
	<defs>
		<clipPath id="clip_8">
			<path d="M778.222 -84L-877.778 -84Q-877.88 -84 -877.981 -83.9907Q-878.082 -83.9814 -878.181 -83.9628Q-878.279 -83.9442 -878.375 -83.9166Q-878.47 -83.8889 -878.561 -83.8524Q-878.652 -83.8158 -878.739 -83.7708Q-878.826 -83.7257 -878.907 -83.6723Q-878.988 -83.6191 -879.063 -83.558Q-879.138 -83.4969 -879.206 -83.4286Q-879.275 -83.3602 -879.336 -83.2852Q-879.397 -83.2101 -879.45 -83.129Q-879.504 -83.0478 -879.549 -82.9613Q-879.594 -82.8747 -879.63 -82.7833Q-879.667 -82.692 -879.694 -82.5967Q-879.722 -82.5014 -879.741 -82.4029Q-879.759 -82.3044 -879.769 -82.2034Q-879.778 -82.1025 -879.778 -82L-879.778 151Q-879.778 151.103 -879.768 151.203Q-879.759 151.304 -879.741 151.403Q-879.722 151.501 -879.694 151.597Q-879.667 151.692 -879.63 151.783Q-879.594 151.875 -879.549 151.961Q-879.504 152.048 -879.45 152.129Q-879.397 152.21 -879.336 152.285Q-879.275 152.36 -879.206 152.429Q-879.138 152.497 -879.063 152.558Q-878.988 152.619 -878.907 152.672Q-878.826 152.726 -878.739 152.771Q-878.653 152.816 -878.561 152.852Q-878.47 152.889 -878.375 152.917Q-878.279 152.944 -878.181 152.963Q-878.082 152.981 -877.981 152.991Q-877.88 153 -877.778 153L778.222 153Q778.325 153 778.426 152.991Q778.527 152.981 778.625 152.963Q778.724 152.944 778.819 152.917Q778.914 152.889 779.006 152.852Q779.097 152.816 779.184 152.771Q779.27 152.726 779.351 152.672Q779.432 152.619 779.507 152.558Q779.583 152.497 779.651 152.429Q779.719 152.36 779.78 152.285Q779.841 152.21 779.895 152.129Q779.948 152.048 779.993 151.961Q780.038 151.875 780.075 151.783Q780.111 151.692 780.139 151.597Q780.167 151.501 780.185 151.403Q780.204 151.304 780.213 151.203Q780.222 151.103 780.222 151L780.222 -82Q780.222 -82.1025 780.213 -82.2034Q780.204 -82.3044 780.185 -82.4029Q780.167 -82.5014 780.139 -82.5967Q780.111 -82.692 780.075 -82.7833Q780.038 -82.8747 779.993 -82.9613Q779.948 -83.0478 779.895 -83.129Q779.841 -83.2101 779.78 -83.2852Q779.719 -83.3602 779.651 -83.4286Q779.583 -83.4969 779.507 -83.558Q779.432 -83.6191 779.351 -83.6723Q779.27 -83.7257 779.184 -83.7708Q779.097 -83.8158 779.006 -83.8524Q778.914 -83.8889 778.819 -83.9166Q778.724 -83.9442 778.625 -83.9628Q778.527 -83.9814 778.426 -83.9907Q778.325 -84 778.222 -84Z" clip-rule="evenodd"/>
		</clipPath>
	</defs>
	<g clip-path="url(#clip_8)">
		<path fill="rgb(0,0,0)" stroke="none" transform="translate(9.25449 16.9355)" d="M0 0L2.25806 0L2.25806 2.25806L0 2.25806L0 0Z"/>
	</g>
	<defs>
		<clipPath id="clip_9">
			<path d="M778.222 -84L-877.778 -84Q-877.88 -84 -877.981 -83.9907Q-878.082 -83.9814 -878.181 -83.9628Q-878.279 -83.9442 -878.375 -83.9166Q-878.47 -83.8889 -878.561 -83.8524Q-878.652 -83.8158 -878.739 -83.7708Q-878.826 -83.7257 -878.907 -83.6723Q-878.988 -83.6191 -879.063 -83.558Q-879.138 -83.4969 -879.206 -83.4286Q-879.275 -83.3602 -879.336 -83.2852Q-879.397 -83.2101 -879.45 -83.129Q-879.504 -83.0478 -879.549 -82.9613Q-879.594 -82.8747 -879.63 -82.7833Q-879.667 -82.692 -879.694 -82.5967Q-879.722 -82.5014 -879.741 -82.4029Q-879.759 -82.3044 -879.769 -82.2034Q-879.778 -82.1025 -879.778 -82L-879.778 151Q-879.778 151.103 -879.768 151.203Q-879.759 151.304 -879.741 151.403Q-879.722 151.501 -879.694 151.597Q-879.667 151.692 -879.63 151.783Q-879.594 151.875 -879.549 151.961Q-879.504 152.048 -879.45 152.129Q-879.397 152.21 -879.336 152.285Q-879.275 152.36 -879.206 152.429Q-879.138 152.497 -879.063 152.558Q-878.988 152.619 -878.907 152.672Q-878.826 152.726 -878.739 152.771Q-878.653 152.816 -878.561 152.852Q-878.47 152.889 -878.375 152.917Q-878.279 152.944 -878.181 152.963Q-878.082 152.981 -877.981 152.991Q-877.88 153 -877.778 153L778.222 153Q778.325 153 778.426 152.991Q778.527 152.981 778.625 152.963Q778.724 152.944 778.819 152.917Q778.914 152.889 779.006 152.852Q779.097 152.816 779.184 152.771Q779.27 152.726 779.351 152.672Q779.432 152.619 779.507 152.558Q779.583 152.497 779.651 152.429Q779.719 152.36 779.78 152.285Q779.841 152.21 779.895 152.129Q779.948 152.048 779.993 151.961Q780.038 151.875 780.075 151.783Q780.111 151.692 780.139 151.597Q780.167 151.501 780.185 151.403Q780.204 151.304 780.213 151.203Q780.222 151.103 780.222 151L780.222 -82Q780.222 -82.1025 780.213 -82.2034Q780.204 -82.3044 780.185 -82.4029Q780.167 -82.5014 780.139 -82.5967Q780.111 -82.692 780.075 -82.7833Q780.038 -82.8747 779.993 -82.9613Q779.948 -83.0478 779.895 -83.129Q779.841 -83.2101 779.78 -83.2852Q779.719 -83.3602 779.651 -83.4286Q779.583 -83.4969 779.507 -83.558Q779.432 -83.6191 779.351 -83.6723Q779.27 -83.7257 779.184 -83.7708Q779.097 -83.8158 779.006 -83.8524Q778.914 -83.8889 778.819 -83.9166Q778.724 -83.9442 778.625 -83.9628Q778.527 -83.9814 778.426 -83.9907Q778.325 -84 778.222 -84Z" clip-rule="evenodd"/>
		</clipPath>
	</defs>
	<g clip-path="url(#clip_9)">
		<path fill="rgb(0,0,0)" stroke="none" transform="translate(48.7706 42.9032)" d="M0 0L2.25806 0L2.25806 2.25806L0 2.25806L0 0Z"/>
	</g>
	<defs>
		<clipPath id="clip_10">
			<path d="M778.222 -84L-877.778 -84Q-877.88 -84 -877.981 -83.9907Q-878.082 -83.9814 -878.181 -83.9628Q-878.279 -83.9442 -878.375 -83.9166Q-878.47 -83.8889 -878.561 -83.8524Q-878.652 -83.8158 -878.739 -83.7708Q-878.826 -83.7257 -878.907 -83.6723Q-878.988 -83.6191 -879.063 -83.558Q-879.138 -83.4969 -879.206 -83.4286Q-879.275 -83.3602 -879.336 -83.2852Q-879.397 -83.2101 -879.45 -83.129Q-879.504 -83.0478 -879.549 -82.9613Q-879.594 -82.8747 -879.63 -82.7833Q-879.667 -82.692 -879.694 -82.5967Q-879.722 -82.5014 -879.741 -82.4029Q-879.759 -82.3044 -879.769 -82.2034Q-879.778 -82.1025 -879.778 -82L-879.778 151Q-879.778 151.103 -879.768 151.203Q-879.759 151.304 -879.741 151.403Q-879.722 151.501 -879.694 151.597Q-879.667 151.692 -879.63 151.783Q-879.594 151.875 -879.549 151.961Q-879.504 152.048 -879.45 152.129Q-879.397 152.21 -879.336 152.285Q-879.275 152.36 -879.206 152.429Q-879.138 152.497 -879.063 152.558Q-878.988 152.619 -878.907 152.672Q-878.826 152.726 -878.739 152.771Q-878.653 152.816 -878.561 152.852Q-878.47 152.889 -878.375 152.917Q-878.279 152.944 -878.181 152.963Q-878.082 152.981 -877.981 152.991Q-877.88 153 -877.778 153L778.222 153Q778.325 153 778.426 152.991Q778.527 152.981 778.625 152.963Q778.724 152.944 778.819 152.917Q778.914 152.889 779.006 152.852Q779.097 152.816 779.184 152.771Q779.27 152.726 779.351 152.672Q779.432 152.619 779.507 152.558Q779.583 152.497 779.651 152.429Q779.719 152.36 779.78 152.285Q779.841 152.21 779.895 152.129Q779.948 152.048 779.993 151.961Q780.038 151.875 780.075 151.783Q780.111 151.692 780.139 151.597Q780.167 151.501 780.185 151.403Q780.204 151.304 780.213 151.203Q780.222 151.103 780.222 151L780.222 -82Q780.222 -82.1025 780.213 -82.2034Q780.204 -82.3044 780.185 -82.4029Q780.167 -82.5014 780.139 -82.5967Q780.111 -82.692 780.075 -82.7833Q780.038 -82.8747 779.993 -82.9613Q779.948 -83.0478 779.895 -83.129Q779.841 -83.2101 779.78 -83.2852Q779.719 -83.3602 779.651 -83.4286Q779.583 -83.4969 779.507 -83.558Q779.432 -83.6191 779.351 -83.6723Q779.27 -83.7257 779.184 -83.7708Q779.097 -83.8158 779.006 -83.8524Q778.914 -83.8889 778.819 -83.9166Q778.724 -83.9442 778.625 -83.9628Q778.527 -83.9814 778.426 -83.9907Q778.325 -84 778.222 -84Z" clip-rule="evenodd"/>
		</clipPath>
	</defs>
	<g clip-path="url(#clip_10)">
		<path fill="rgb(0,0,0)" stroke="none" transform="translate(41.9964 53.0645)" d="M0 0L2.25806 0L2.25806 2.25806L0 2.25806L0 0Z"/>
	</g>
	<defs>
		<clipPath id="clip_11">
			<path d="M778.222 -84L-877.778 -84Q-877.88 -84 -877.981 -83.9907Q-878.082 -83.9814 -878.181 -83.9628Q-878.279 -83.9442 -878.375 -83.9166Q-878.47 -83.8889 -878.561 -83.8524Q-878.652 -83.8158 -878.739 -83.7708Q-878.826 -83.7257 -878.907 -83.6723Q-878.988 -83.6191 -879.063 -83.558Q-879.138 -83.4969 -879.206 -83.4286Q-879.275 -83.3602 -879.336 -83.2852Q-879.397 -83.2101 -879.45 -83.129Q-879.504 -83.0478 -879.549 -82.9613Q-879.594 -82.8747 -879.63 -82.7833Q-879.667 -82.692 -879.694 -82.5967Q-879.722 -82.5014 -879.741 -82.4029Q-879.759 -82.3044 -879.769 -82.2034Q-879.778 -82.1025 -879.778 -82L-879.778 151Q-879.778 151.103 -879.768 151.203Q-879.759 151.304 -879.741 151.403Q-879.722 151.501 -879.694 151.597Q-879.667 151.692 -879.63 151.783Q-879.594 151.875 -879.549 151.961Q-879.504 152.048 -879.45 152.129Q-879.397 152.21 -879.336 152.285Q-879.275 152.36 -879.206 152.429Q-879.138 152.497 -879.063 152.558Q-878.988 152.619 -878.907 152.672Q-878.826 152.726 -878.739 152.771Q-878.653 152.816 -878.561 152.852Q-878.47 152.889 -878.375 152.917Q-878.279 152.944 -878.181 152.963Q-878.082 152.981 -877.981 152.991Q-877.88 153 -877.778 153L778.222 153Q778.325 153 778.426 152.991Q778.527 152.981 778.625 152.963Q778.724 152.944 778.819 152.917Q778.914 152.889 779.006 152.852Q779.097 152.816 779.184 152.771Q779.27 152.726 779.351 152.672Q779.432 152.619 779.507 152.558Q779.583 152.497 779.651 152.429Q779.719 152.36 779.78 152.285Q779.841 152.21 779.895 152.129Q779.948 152.048 779.993 151.961Q780.038 151.875 780.075 151.783Q780.111 151.692 780.139 151.597Q780.167 151.501 780.185 151.403Q780.204 151.304 780.213 151.203Q780.222 151.103 780.222 151L780.222 -82Q780.222 -82.1025 780.213 -82.2034Q780.204 -82.3044 780.185 -82.4029Q780.167 -82.5014 780.139 -82.5967Q780.111 -82.692 780.075 -82.7833Q780.038 -82.8747 779.993 -82.9613Q779.948 -83.0478 779.895 -83.129Q779.841 -83.2101 779.78 -83.2852Q779.719 -83.3602 779.651 -83.4286Q779.583 -83.4969 779.507 -83.558Q779.432 -83.6191 779.351 -83.6723Q779.27 -83.7257 779.184 -83.7708Q779.097 -83.8158 779.006 -83.8524Q778.914 -83.8889 778.819 -83.9166Q778.724 -83.9442 778.625 -83.9628Q778.527 -83.9814 778.426 -83.9907Q778.325 -84 778.222 -84Z" clip-rule="evenodd"/>
		</clipPath>
	</defs>
	<g clip-path="url(#clip_11)">
		<path fill="rgb(0,0,0)" stroke="none" transform="translate(55.5448 53.0645)" d="M0 0L2.25806 0L2.25806 2.25806L0 2.25806L0 0Z"/>
	</g>
	<defs>
		<clipPath id="clip_12">
			<path d="M778.222 -84L-877.778 -84Q-877.88 -84 -877.981 -83.9907Q-878.082 -83.9814 -878.181 -83.9628Q-878.279 -83.9442 -878.375 -83.9166Q-878.47 -83.8889 -878.561 -83.8524Q-878.652 -83.8158 -878.739 -83.7708Q-878.826 -83.7257 -878.907 -83.6723Q-878.988 -83.6191 -879.063 -83.558Q-879.138 -83.4969 -879.206 -83.4286Q-879.275 -83.3602 -879.336 -83.2852Q-879.397 -83.2101 -879.45 -83.129Q-879.504 -83.0478 -879.549 -82.9613Q-879.594 -82.8747 -879.63 -82.7833Q-879.667 -82.692 -879.694 -82.5967Q-879.722 -82.5014 -879.741 -82.4029Q-879.759 -82.3044 -879.769 -82.2034Q-879.778 -82.1025 -879.778 -82L-879.778 151Q-879.778 151.103 -879.768 151.203Q-879.759 151.304 -879.741 151.403Q-879.722 151.501 -879.694 151.597Q-879.667 151.692 -879.63 151.783Q-879.594 151.875 -879.549 151.961Q-879.504 152.048 -879.45 152.129Q-879.397 152.21 -879.336 152.285Q-879.275 152.36 -879.206 152.429Q-879.138 152.497 -879.063 152.558Q-878.988 152.619 -878.907 152.672Q-878.826 152.726 -878.739 152.771Q-878.653 152.816 -878.561 152.852Q-878.47 152.889 -878.375 152.917Q-878.279 152.944 -878.181 152.963Q-878.082 152.981 -877.981 152.991Q-877.88 153 -877.778 153L778.222 153Q778.325 153 778.426 152.991Q778.527 152.981 778.625 152.963Q778.724 152.944 778.819 152.917Q778.914 152.889 779.006 152.852Q779.097 152.816 779.184 152.771Q779.27 152.726 779.351 152.672Q779.432 152.619 779.507 152.558Q779.583 152.497 779.651 152.429Q779.719 152.36 779.78 152.285Q779.841 152.21 779.895 152.129Q779.948 152.048 779.993 151.961Q780.038 151.875 780.075 151.783Q780.111 151.692 780.139 151.597Q780.167 151.501 780.185 151.403Q780.204 151.304 780.213 151.203Q780.222 151.103 780.222 151L780.222 -82Q780.222 -82.1025 780.213 -82.2034Q780.204 -82.3044 780.185 -82.4029Q780.167 -82.5014 780.139 -82.5967Q780.111 -82.692 780.075 -82.7833Q780.038 -82.8747 779.993 -82.9613Q779.948 -83.0478 779.895 -83.129Q779.841 -83.2101 779.78 -83.2852Q779.719 -83.3602 779.651 -83.4286Q779.583 -83.4969 779.507 -83.558Q779.432 -83.6191 779.351 -83.6723Q779.27 -83.7257 779.184 -83.7708Q779.097 -83.8158 779.006 -83.8524Q778.914 -83.8889 778.819 -83.9166Q778.724 -83.9442 778.625 -83.9628Q778.527 -83.9814 778.426 -83.9907Q778.325 -84 778.222 -84Z" clip-rule="evenodd"/>
		</clipPath>
	</defs>
	<g clip-path="url(#clip_12)">
		<path fill="rgb(0,0,0)" stroke="none" transform="translate(48.7706 63.2258)" d="M0 0L2.25806 0L2.25806 2.25806L0 2.25806L0 0Z"/>
	</g>
	<defs>
		<clipPath id="clip_13">
			<path d="M778.222 -84L-877.778 -84Q-877.88 -84 -877.981 -83.9907Q-878.082 -83.9814 -878.181 -83.9628Q-878.279 -83.9442 -878.375 -83.9166Q-878.47 -83.8889 -878.561 -83.8524Q-878.652 -83.8158 -878.739 -83.7708Q-878.826 -83.7257 -878.907 -83.6723Q-878.988 -83.6191 -879.063 -83.558Q-879.138 -83.4969 -879.206 -83.4286Q-879.275 -83.3602 -879.336 -83.2852Q-879.397 -83.2101 -879.45 -83.129Q-879.504 -83.0478 -879.549 -82.9613Q-879.594 -82.8747 -879.63 -82.7833Q-879.667 -82.692 -879.694 -82.5967Q-879.722 -82.5014 -879.741 -82.4029Q-879.759 -82.3044 -879.769 -82.2034Q-879.778 -82.1025 -879.778 -82L-879.778 151Q-879.778 151.103 -879.768 151.203Q-879.759 151.304 -879.741 151.403Q-879.722 151.501 -879.694 151.597Q-879.667 151.692 -879.63 151.783Q-879.594 151.875 -879.549 151.961Q-879.504 152.048 -879.45 152.129Q-879.397 152.21 -879.336 152.285Q-879.275 152.36 -879.206 152.429Q-879.138 152.497 -879.063 152.558Q-878.988 152.619 -878.907 152.672Q-878.826 152.726 -878.739 152.771Q-878.653 152.816 -878.561 152.852Q-878.47 152.889 -878.375 152.917Q-878.279 152.944 -878.181 152.963Q-878.082 152.981 -877.981 152.991Q-877.88 153 -877.778 153L778.222 153Q778.325 153 778.426 152.991Q778.527 152.981 778.625 152.963Q778.724 152.944 778.819 152.917Q778.914 152.889 779.006 152.852Q779.097 152.816 779.184 152.771Q779.27 152.726 779.351 152.672Q779.432 152.619 779.507 152.558Q779.583 152.497 779.651 152.429Q779.719 152.36 779.78 152.285Q779.841 152.21 779.895 152.129Q779.948 152.048 779.993 151.961Q780.038 151.875 780.075 151.783Q780.111 151.692 780.139 151.597Q780.167 151.501 780.185 151.403Q780.204 151.304 780.213 151.203Q780.222 151.103 780.222 151L780.222 -82Q780.222 -82.1025 780.213 -82.2034Q780.204 -82.3044 780.185 -82.4029Q780.167 -82.5014 780.139 -82.5967Q780.111 -82.692 780.075 -82.7833Q780.038 -82.8747 779.993 -82.9613Q779.948 -83.0478 779.895 -83.129Q779.841 -83.2101 779.78 -83.2852Q779.719 -83.3602 779.651 -83.4286Q779.583 -83.4969 779.507 -83.558Q779.432 -83.6191 779.351 -83.6723Q779.27 -83.7257 779.184 -83.7708Q779.097 -83.8158 779.006 -83.8524Q778.914 -83.8889 778.819 -83.9166Q778.724 -83.9442 778.625 -83.9628Q778.527 -83.9814 778.426 -83.9907Q778.325 -84 778.222 -84Z" clip-rule="evenodd"/>
		</clipPath>
	</defs>
	<g clip-path="url(#clip_13)">
		<path fill="rgb(0,0,0)" stroke="none" transform="translate(62.319 63.2258)" d="M0 0L2.25807 0L2.25807 2.25806L0 2.25806L0 0Z"/>
	</g>

</svg>