<?xml version="1.0" encoding="utf-8" ?>
<svg xmlns="http://www.w3.org/2000/svg" xmlns:xlink="http://www.w3.org/1999/xlink" width="64" height="70">
	<defs>
		<clipPath id="clip_0">
			<path d="M1084.75 -82.8374L-564.297 -82.8374Q-564.399 -82.8374 -564.5 -82.8281Q-564.6 -82.8188 -564.698 -82.8004Q-564.796 -82.7819 -564.891 -82.7543Q-564.986 -82.7268 -565.077 -82.6904Q-565.168 -82.654 -565.254 -82.6091Q-565.34 -82.5642 -565.421 -82.5111Q-565.502 -82.4581 -565.577 -82.3972Q-565.651 -82.3364 -565.72 -82.2684Q-565.788 -82.2003 -565.848 -82.1256Q-565.909 -82.0508 -565.962 -81.97Q-566.015 -81.8892 -566.06 -81.803Q-566.105 -81.7168 -566.142 -81.6258Q-566.178 -81.5349 -566.206 -81.44Q-566.233 -81.3451 -566.251 -81.247Q-566.27 -81.1489 -566.279 -81.0484Q-566.289 -80.9479 -566.289 -80.8458L-566.289 151.176Q-566.289 151.278 -566.279 151.378Q-566.27 151.479 -566.251 151.577Q-566.233 151.675 -566.206 151.77Q-566.178 151.865 -566.142 151.956Q-566.105 152.047 -566.06 152.133Q-566.015 152.219 -565.962 152.3Q-565.909 152.381 -565.848 152.455Q-565.788 152.53 -565.719 152.598Q-565.651 152.666 -565.577 152.727Q-565.502 152.788 -565.421 152.841Q-565.34 152.894 -565.254 152.939Q-565.168 152.984 -565.077 153.02Q-564.986 153.057 -564.891 153.084Q-564.796 153.112 -564.698 153.13Q-564.6 153.149 -564.5 153.158Q-564.399 153.167 -564.297 153.167L1084.75 153.167Q1084.85 153.167 1084.95 153.158Q1085.05 153.149 1085.15 153.13Q1085.25 153.112 1085.34 153.084Q1085.44 153.057 1085.53 153.02Q1085.62 152.984 1085.71 152.939Q1085.79 152.894 1085.87 152.841Q1085.95 152.788 1086.03 152.727Q1086.1 152.666 1086.17 152.598Q1086.24 152.53 1086.3 152.455Q1086.36 152.381 1086.41 152.3Q1086.47 152.219 1086.51 152.133Q1086.56 152.047 1086.59 151.956Q1086.63 151.865 1086.66 151.77Q1086.68 151.675 1086.7 151.577Q1086.72 151.479 1086.73 151.378Q1086.74 151.278 1086.74 151.176L1086.74 -80.8458Q1086.74 -80.9479 1086.73 -81.0484Q1086.72 -81.1489 1086.7 -81.247Q1086.68 -81.3451 1086.66 -81.44Q1086.63 -81.5349 1086.59 -81.6258Q1086.56 -81.7168 1086.51 -81.803Q1086.47 -81.8892 1086.41 -81.97Q1086.36 -82.0508 1086.3 -82.1256Q1086.24 -82.2003 1086.17 -82.2684Q1086.1 -82.3364 1086.03 -82.3972Q1085.95 -82.4581 1085.87 -82.5111Q1085.79 -82.5642 1085.71 -82.6091Q1085.62 -82.654 1085.53 -82.6904Q1085.44 -82.7268 1085.34 -82.7543Q1085.25 -82.7819 1085.15 -82.8004Q1085.05 -82.8188 1084.95 -82.8281Q1084.85 -82.8374 1084.75 -82.8374Z" clip-rule="evenodd"/>
		</clipPath>
	</defs>
	<g clip-path="url(#clip_0)">
		<path fill="rgb(0,0,0)" stroke="none" transform="matrix(0.9958 0 0 0.9958 39.5056 4.18726)" d="M0 2.23711C0.0868385 2.24842 8.70935 3.39296 13.9933 8.6812L15.5876 7.08684C9.74684 1.24268 0.665361 0.0473883 0.280722 0L0 2.23711Z"/>
	</g>
	<defs>
		<clipPath id="clip_1">
			<path d="M1084.75 -82.8374L-564.297 -82.8374Q-564.399 -82.8374 -564.5 -82.8281Q-564.6 -82.8188 -564.698 -82.8004Q-564.796 -82.7819 -564.891 -82.7543Q-564.986 -82.7268 -565.077 -82.6904Q-565.168 -82.654 -565.254 -82.6091Q-565.34 -82.5642 -565.421 -82.5111Q-565.502 -82.4581 -565.577 -82.3972Q-565.651 -82.3364 -565.72 -82.2684Q-565.788 -82.2003 -565.848 -82.1256Q-565.909 -82.0508 -565.962 -81.97Q-566.015 -81.8892 -566.06 -81.803Q-566.105 -81.7168 -566.142 -81.6258Q-566.178 -81.5349 -566.206 -81.44Q-566.233 -81.3451 -566.251 -81.247Q-566.27 -81.1489 -566.279 -81.0484Q-566.289 -80.9479 -566.289 -80.8458L-566.289 151.176Q-566.289 151.278 -566.279 151.378Q-566.27 151.479 -566.251 151.577Q-566.233 151.675 -566.206 151.77Q-566.178 151.865 -566.142 151.956Q-566.105 152.047 -566.06 152.133Q-566.015 152.219 -565.962 152.3Q-565.909 152.381 -565.848 152.455Q-565.788 152.53 -565.719 152.598Q-565.651 152.666 -565.577 152.727Q-565.502 152.788 -565.421 152.841Q-565.34 152.894 -565.254 152.939Q-565.168 152.984 -565.077 153.02Q-564.986 153.057 -564.891 153.084Q-564.796 153.112 -564.698 153.13Q-564.6 153.149 -564.5 153.158Q-564.399 153.167 -564.297 153.167L1084.75 153.167Q1084.85 153.167 1084.95 153.158Q1085.05 153.149 1085.15 153.13Q1085.25 153.112 1085.34 153.084Q1085.44 153.057 1085.53 153.02Q1085.62 152.984 1085.71 152.939Q1085.79 152.894 1085.87 152.841Q1085.95 152.788 1086.03 152.727Q1086.1 152.666 1086.17 152.598Q1086.24 152.53 1086.3 152.455Q1086.36 152.381 1086.41 152.3Q1086.47 152.219 1086.51 152.133Q1086.56 152.047 1086.59 151.956Q1086.63 151.865 1086.66 151.77Q1086.68 151.675 1086.7 151.577Q1086.72 151.479 1086.73 151.378Q1086.74 151.278 1086.74 151.176L1086.74 -80.8458Q1086.74 -80.9479 1086.73 -81.0484Q1086.72 -81.1489 1086.7 -81.247Q1086.68 -81.3451 1086.66 -81.44Q1086.63 -81.5349 1086.59 -81.6258Q1086.56 -81.7168 1086.51 -81.803Q1086.47 -81.8892 1086.41 -81.97Q1086.36 -82.0508 1086.3 -82.1256Q1086.24 -82.2003 1086.17 -82.2684Q1086.1 -82.3364 1086.03 -82.3972Q1085.95 -82.4581 1085.87 -82.5111Q1085.79 -82.5642 1085.71 -82.6091Q1085.62 -82.654 1085.53 -82.6904Q1085.44 -82.7268 1085.34 -82.7543Q1085.25 -82.7819 1085.15 -82.8004Q1085.05 -82.8188 1084.95 -82.8281Q1084.85 -82.8374 1084.75 -82.8374Z" clip-rule="evenodd"/>
		</clipPath>
	</defs>
	<g clip-path="url(#clip_1)">
		<path fill="rgb(0,0,0)" stroke="none" transform="matrix(0.9958 0 0 0.9958 7.21707 16.5295)" d="M8.56382 10.9455C13.9211 5.58485 21.2752 2.25515 28.0407 2.25515L28.0407 0C20.1475 0 12.8194 3.49543 6.96849 9.35089C4.49804 11.8237 1.24388 16.176 0 18.6647L2.01509 19.6729C3.04103 17.6217 6.05729 13.4532 8.56382 10.9455Z"/>
	</g>
	<defs>
		<clipPath id="clip_2">
			<path d="M1084.75 -82.8374L-564.297 -82.8374Q-564.399 -82.8374 -564.5 -82.8281Q-564.6 -82.8188 -564.698 -82.8004Q-564.796 -82.7819 -564.891 -82.7543Q-564.986 -82.7268 -565.077 -82.6904Q-565.168 -82.654 -565.254 -82.6091Q-565.34 -82.5642 -565.421 -82.5111Q-565.502 -82.4581 -565.577 -82.3972Q-565.651 -82.3364 -565.72 -82.2684Q-565.788 -82.2003 -565.848 -82.1256Q-565.909 -82.0508 -565.962 -81.97Q-566.015 -81.8892 -566.06 -81.803Q-566.105 -81.7168 -566.142 -81.6258Q-566.178 -81.5349 -566.206 -81.44Q-566.233 -81.3451 -566.251 -81.247Q-566.27 -81.1489 -566.279 -81.0484Q-566.289 -80.9479 -566.289 -80.8458L-566.289 151.176Q-566.289 151.278 -566.279 151.378Q-566.27 151.479 -566.251 151.577Q-566.233 151.675 -566.206 151.77Q-566.178 151.865 -566.142 151.956Q-566.105 152.047 -566.06 152.133Q-566.015 152.219 -565.962 152.3Q-565.909 152.381 -565.848 152.455Q-565.788 152.53 -565.719 152.598Q-565.651 152.666 -565.577 152.727Q-565.502 152.788 -565.421 152.841Q-565.34 152.894 -565.254 152.939Q-565.168 152.984 -565.077 153.02Q-564.986 153.057 -564.891 153.084Q-564.796 153.112 -564.698 153.13Q-564.6 153.149 -564.5 153.158Q-564.399 153.167 -564.297 153.167L1084.75 153.167Q1084.85 153.167 1084.95 153.158Q1085.05 153.149 1085.15 153.13Q1085.25 153.112 1085.34 153.084Q1085.44 153.057 1085.53 153.02Q1085.62 152.984 1085.71 152.939Q1085.79 152.894 1085.87 152.841Q1085.95 152.788 1086.03 152.727Q1086.1 152.666 1086.17 152.598Q1086.24 152.53 1086.3 152.455Q1086.36 152.381 1086.41 152.3Q1086.47 152.219 1086.51 152.133Q1086.56 152.047 1086.59 151.956Q1086.63 151.865 1086.66 151.77Q1086.68 151.675 1086.7 151.577Q1086.72 151.479 1086.73 151.378Q1086.74 151.278 1086.74 151.176L1086.74 -80.8458Q1086.74 -80.9479 1086.73 -81.0484Q1086.72 -81.1489 1086.7 -81.247Q1086.68 -81.3451 1086.66 -81.44Q1086.63 -81.5349 1086.59 -81.6258Q1086.56 -81.7168 1086.51 -81.803Q1086.47 -81.8892 1086.41 -81.97Q1086.36 -82.0508 1086.3 -82.1256Q1086.24 -82.2003 1086.17 -82.2684Q1086.1 -82.3364 1086.03 -82.3972Q1085.95 -82.4581 1085.87 -82.5111Q1085.79 -82.5642 1085.71 -82.6091Q1085.62 -82.654 1085.53 -82.6904Q1085.44 -82.7268 1085.34 -82.7543Q1085.25 -82.7819 1085.15 -82.8004Q1085.05 -82.8188 1084.95 -82.8281Q1084.85 -82.8374 1084.75 -82.8374Z" clip-rule="evenodd"/>
		</clipPath>
	</defs>
	<g clip-path="url(#clip_2)">
		<path fill="rgb(0,0,0)" stroke="none" transform="matrix(0.9958 0 0 0.9958 37.3856 16.5298)" d="M0 2.25491C4.51031 2.25491 9.44014 5.39409 10.4786 6.43495L12.0684 4.84179C10.6667 3.43577 4.51031 0 6.83684e-15 0L6.83684e-15 2.25491L0 2.25491Z"/>
	</g>
	<defs>
		<clipPath id="clip_3">
			<path d="M1084.75 -82.8374L-564.297 -82.8374Q-564.399 -82.8374 -564.5 -82.8281Q-564.6 -82.8188 -564.698 -82.8004Q-564.796 -82.7819 -564.891 -82.7543Q-564.986 -82.7268 -565.077 -82.6904Q-565.168 -82.654 -565.254 -82.6091Q-565.34 -82.5642 -565.421 -82.5111Q-565.502 -82.4581 -565.577 -82.3972Q-565.651 -82.3364 -565.72 -82.2684Q-565.788 -82.2003 -565.848 -82.1256Q-565.909 -82.0508 -565.962 -81.97Q-566.015 -81.8892 -566.06 -81.803Q-566.105 -81.7168 -566.142 -81.6258Q-566.178 -81.5349 -566.206 -81.44Q-566.233 -81.3451 -566.251 -81.247Q-566.27 -81.1489 -566.279 -81.0484Q-566.289 -80.9479 -566.289 -80.8458L-566.289 151.176Q-566.289 151.278 -566.279 151.378Q-566.27 151.479 -566.251 151.577Q-566.233 151.675 -566.206 151.77Q-566.178 151.865 -566.142 151.956Q-566.105 152.047 -566.06 152.133Q-566.015 152.219 -565.962 152.3Q-565.909 152.381 -565.848 152.455Q-565.788 152.53 -565.719 152.598Q-565.651 152.666 -565.577 152.727Q-565.502 152.788 -565.421 152.841Q-565.34 152.894 -565.254 152.939Q-565.168 152.984 -565.077 153.02Q-564.986 153.057 -564.891 153.084Q-564.796 153.112 -564.698 153.13Q-564.6 153.149 -564.5 153.158Q-564.399 153.167 -564.297 153.167L1084.75 153.167Q1084.85 153.167 1084.95 153.158Q1085.05 153.149 1085.15 153.13Q1085.25 153.112 1085.34 153.084Q1085.44 153.057 1085.53 153.02Q1085.62 152.984 1085.71 152.939Q1085.79 152.894 1085.87 152.841Q1085.95 152.788 1086.03 152.727Q1086.1 152.666 1086.17 152.598Q1086.24 152.53 1086.3 152.455Q1086.36 152.381 1086.41 152.3Q1086.47 152.219 1086.51 152.133Q1086.56 152.047 1086.59 151.956Q1086.63 151.865 1086.66 151.77Q1086.68 151.675 1086.7 151.577Q1086.72 151.479 1086.73 151.378Q1086.74 151.278 1086.74 151.176L1086.74 -80.8458Q1086.74 -80.9479 1086.73 -81.0484Q1086.72 -81.1489 1086.7 -81.247Q1086.68 -81.3451 1086.66 -81.44Q1086.63 -81.5349 1086.59 -81.6258Q1086.56 -81.7168 1086.51 -81.803Q1086.47 -81.8892 1086.41 -81.97Q1086.36 -82.0508 1086.3 -82.1256Q1086.24 -82.2003 1086.17 -82.2684Q1086.1 -82.3364 1086.03 -82.3972Q1085.95 -82.4581 1085.87 -82.5111Q1085.79 -82.5642 1085.71 -82.6091Q1085.62 -82.654 1085.53 -82.6904Q1085.44 -82.7268 1085.34 -82.7543Q1085.25 -82.7819 1085.15 -82.8004Q1085.05 -82.8188 1084.95 -82.8281Q1084.85 -82.8374 1084.75 -82.8374Z" clip-rule="evenodd"/>
		</clipPath>
	</defs>
	<g clip-path="url(#clip_3)">
		<path fill="rgb(0,0,0)" stroke="none" transform="matrix(0.9958 0 0 0.9958 0.34137 0.809814)" d="M34.9469 0C44.8298 0 53.285 3.23395 59.3959 9.35089C62.0648 12.0244 63.1049 14.1443 63.1049 16.9138C63.1049 19.7508 61.1888 22.6812 59.3957 24.4764L16.5949 67.3244C15.3258 68.594 14.014 69.9098 12.4204 69.9098L12.4149 69.9098C11.3466 69.9098 10.3491 69.4328 9.36855 68.4518C3.86953 62.9459 0.0297622 53.8079 0.0297622 46.2305C0.0297622 44.1152 0.357717 41.8725 0.948229 39.6015C-0.470826 37.6056 -0.301559 34.8181 1.48584 33.0299C2.23745 32.2767 2.28145 31.7761 2.28145 28.1893C2.28145 26.5656 2.79093 25.4213 3.64641 24.5101L3.46728 24.4504C4.14699 22.4084 6.74467 15.3632 11.6238 10.4786C19.0567 3.0355 25.8144 0 34.9469 0ZM15.0086 65.7298L57.8293 22.8818C59.682 21.0272 60.8795 18.684 60.88 16.914C60.88 15.1145 60.3703 13.4884 57.8298 10.9457C52.0667 5.17928 44.3744 2.2554 34.9636 2.2554C26.3782 2.2554 20.2836 5.00777 13.2227 12.0732C12.0467 13.2492 10.9801 14.6384 10.0148 16.1019C10.7816 15.1739 11.9724 14.6586 13.552 14.6586C14.8724 14.6586 16.1209 14.6586 16.9924 12.046C17.4795 10.5823 18.4198 9.49763 19.6411 8.99247C20.7327 8.53904 21.9819 8.59436 23.0735 9.13897C23.8685 9.53684 24.8293 9.64509 25.7087 9.43316C26.5148 9.24024 27.0358 8.83323 27.1948 8.51643C27.8749 7.15323 28.9742 6.28605 30.2878 6.07292C31.4672 5.88361 32.676 6.26247 33.5071 7.09574C35.4904 9.07907 38.181 8.40481 38.9669 8.01127C40.6221 7.18474 41.8838 7.3055 42.6506 7.5535C43.6451 7.87608 44.475 8.61794 44.9881 9.64412C45.7581 11.1877 47.1833 11.2746 49.6336 11.2948C52.3409 11.3184 54.1203 13.1225 54.1203 15.7858C54.1203 16.2143 54.8768 17.4411 55.7676 18.1425C56.5693 17.1514 56.7485 15.5944 55.5465 14.2976L57.1984 12.7641C59.4388 15.1816 58.856 18.2791 57.169 19.9659C55.5328 21.6043 52.6869 22.2595 50.0168 20.0359C45.8526 16.5662 40.535 14.6584 35.038 14.6584L34.9658 14.6584C26.8855 14.6832 18.1232 18.4449 12.0962 24.4762C6.22826 30.3487 2.28517 39.0908 2.28517 46.2305C2.28517 53.1471 5.9372 61.8215 10.9685 66.8572C11.7251 67.6149 12.2335 67.6445 12.3989 67.6541C12.408 67.6546 12.4161 67.6551 12.4231 67.6556C13.0849 67.6546 14.1505 66.5878 15.0086 65.7298ZM4.53792 28.1726C4.53792 26.5481 5.18187 25.7302 7.29486 24.6744C8.70665 23.9692 11.2988 21.3408 11.2988 19.1597C11.2988 17.5385 11.9315 16.9064 13.5518 16.9064C15.0177 16.9064 17.7453 16.9064 19.1299 12.7559C19.4073 11.9222 19.8944 11.3251 20.5023 11.074C20.9961 10.869 21.5508 10.8971 22.0629 11.154C23.3417 11.7928 24.822 11.9606 26.2305 11.6239C27.6028 11.2961 28.7156 10.5108 29.2106 9.52279C29.5635 8.81762 30.0607 8.39389 30.6472 8.29919C31.1107 8.22373 31.5954 8.37346 31.9113 8.69023C34.5386 11.3165 38.1716 10.9288 39.9736 10.0287C40.7448 9.64344 41.427 9.52952 41.9547 9.69968C42.4847 9.87105 42.7993 10.3114 42.9684 10.6517C44.3949 13.5031 47.287 13.5279 49.6708 13.5483C50.671 13.5575 51.863 13.9516 51.863 15.7814C51.863 16.9406 52.7121 18.2521 53.5971 19.1895C52.9825 19.1839 52.2575 18.9597 51.4581 18.2961C46.8925 14.4914 41.0642 12.4004 35.0394 12.4004L34.9605 12.4004C26.3062 12.4264 16.9351 16.4382 10.5033 22.8701C8.18057 25.1921 6.14191 27.9443 4.49438 30.8782C4.53335 30.1329 4.53792 29.2642 4.53792 28.1726ZM9.04366 19.1677C9.04366 18.2036 9.24452 17.3918 9.60077 16.7197C8.41438 18.6085 7.42548 20.5942 6.64418 22.4479C7.69177 21.7195 9.04366 20.0313 9.04366 19.1677Z" fill-rule="evenodd"/>
	</g>
	<defs>
		<clipPath id="clip_4">
			<path d="M1084.75 -82.8374L-564.297 -82.8374Q-564.399 -82.8374 -564.5 -82.8281Q-564.6 -82.8188 -564.698 -82.8004Q-564.796 -82.7819 -564.891 -82.7543Q-564.986 -82.7268 -565.077 -82.6904Q-565.168 -82.654 -565.254 -82.6091Q-565.34 -82.5642 -565.421 -82.5111Q-565.502 -82.4581 -565.577 -82.3972Q-565.651 -82.3364 -565.72 -82.2684Q-565.788 -82.2003 -565.848 -82.1256Q-565.909 -82.0508 -565.962 -81.97Q-566.015 -81.8892 -566.06 -81.803Q-566.105 -81.7168 -566.142 -81.6258Q-566.178 -81.5349 -566.206 -81.44Q-566.233 -81.3451 -566.251 -81.247Q-566.27 -81.1489 -566.279 -81.0484Q-566.289 -80.9479 -566.289 -80.8458L-566.289 151.176Q-566.289 151.278 -566.279 151.378Q-566.27 151.479 -566.251 151.577Q-566.233 151.675 -566.206 151.77Q-566.178 151.865 -566.142 151.956Q-566.105 152.047 -566.06 152.133Q-566.015 152.219 -565.962 152.3Q-565.909 152.381 -565.848 152.455Q-565.788 152.53 -565.719 152.598Q-565.651 152.666 -565.577 152.727Q-565.502 152.788 -565.421 152.841Q-565.34 152.894 -565.254 152.939Q-565.168 152.984 -565.077 153.02Q-564.986 153.057 -564.891 153.084Q-564.796 153.112 -564.698 153.13Q-564.6 153.149 -564.5 153.158Q-564.399 153.167 -564.297 153.167L1084.75 153.167Q1084.85 153.167 1084.95 153.158Q1085.05 153.149 1085.15 153.13Q1085.25 153.112 1085.34 153.084Q1085.44 153.057 1085.53 153.02Q1085.62 152.984 1085.71 152.939Q1085.79 152.894 1085.87 152.841Q1085.95 152.788 1086.03 152.727Q1086.1 152.666 1086.17 152.598Q1086.24 152.53 1086.3 152.455Q1086.36 152.381 1086.41 152.3Q1086.47 152.219 1086.51 152.133Q1086.56 152.047 1086.59 151.956Q1086.63 151.865 1086.66 151.77Q1086.68 151.675 1086.7 151.577Q1086.72 151.479 1086.73 151.378Q1086.74 151.278 1086.74 151.176L1086.74 -80.8458Q1086.74 -80.9479 1086.73 -81.0484Q1086.72 -81.1489 1086.7 -81.247Q1086.68 -81.3451 1086.66 -81.44Q1086.63 -81.5349 1086.59 -81.6258Q1086.56 -81.7168 1086.51 -81.803Q1086.47 -81.8892 1086.41 -81.97Q1086.36 -82.0508 1086.3 -82.1256Q1086.24 -82.2003 1086.17 -82.2684Q1086.1 -82.3364 1086.03 -82.3972Q1085.95 -82.4581 1085.87 -82.5111Q1085.79 -82.5642 1085.71 -82.6091Q1085.62 -82.654 1085.53 -82.6904Q1085.44 -82.7268 1085.34 -82.7543Q1085.25 -82.7819 1085.15 -82.8004Q1085.05 -82.8188 1084.95 -82.8281Q1084.85 -82.8374 1084.75 -82.8374Z" clip-rule="evenodd"/>
		</clipPath>
	</defs>
	<g clip-path="url(#clip_4)">
		<path fill="rgb(0,0,0)" stroke="none" transform="matrix(0.9958 0 0 0.9958 9.34706 54.7062)" d="M0 3.38285C0 1.51763 1.51787 0 3.38165 0C5.24663 0 6.7633 1.51763 6.7633 3.38285C6.7633 5.24808 5.24567 6.7657 3.38165 6.7657C1.51763 6.7657 0 5.24808 0 3.38285ZM2.25515 3.38261C2.25515 4.00515 2.76031 4.51031 3.38165 4.51031C4.00299 4.51031 4.50814 4.00515 4.50814 3.38261C4.50814 2.76007 4.00299 2.25491 3.38165 2.25491C2.76031 2.25491 2.25515 2.76007 2.25515 3.38261Z" fill-rule="evenodd"/>
	</g>
	<defs>
		<clipPath id="clip_5">
			<path d="M1084.75 -82.8374L-564.297 -82.8374Q-564.399 -82.8374 -564.5 -82.8281Q-564.6 -82.8188 -564.698 -82.8004Q-564.796 -82.7819 -564.891 -82.7543Q-564.986 -82.7268 -565.077 -82.6904Q-565.168 -82.654 -565.254 -82.6091Q-565.34 -82.5642 -565.421 -82.5111Q-565.502 -82.4581 -565.577 -82.3972Q-565.651 -82.3364 -565.72 -82.2684Q-565.788 -82.2003 -565.848 -82.1256Q-565.909 -82.0508 -565.962 -81.97Q-566.015 -81.8892 -566.06 -81.803Q-566.105 -81.7168 -566.142 -81.6258Q-566.178 -81.5349 -566.206 -81.44Q-566.233 -81.3451 -566.251 -81.247Q-566.27 -81.1489 -566.279 -81.0484Q-566.289 -80.9479 -566.289 -80.8458L-566.289 151.176Q-566.289 151.278 -566.279 151.378Q-566.27 151.479 -566.251 151.577Q-566.233 151.675 -566.206 151.77Q-566.178 151.865 -566.142 151.956Q-566.105 152.047 -566.06 152.133Q-566.015 152.219 -565.962 152.3Q-565.909 152.381 -565.848 152.455Q-565.788 152.53 -565.719 152.598Q-565.651 152.666 -565.577 152.727Q-565.502 152.788 -565.421 152.841Q-565.34 152.894 -565.254 152.939Q-565.168 152.984 -565.077 153.02Q-564.986 153.057 -564.891 153.084Q-564.796 153.112 -564.698 153.13Q-564.6 153.149 -564.5 153.158Q-564.399 153.167 -564.297 153.167L1084.75 153.167Q1084.85 153.167 1084.95 153.158Q1085.05 153.149 1085.15 153.13Q1085.25 153.112 1085.34 153.084Q1085.44 153.057 1085.53 153.02Q1085.62 152.984 1085.71 152.939Q1085.79 152.894 1085.87 152.841Q1085.95 152.788 1086.03 152.727Q1086.1 152.666 1086.17 152.598Q1086.24 152.53 1086.3 152.455Q1086.36 152.381 1086.41 152.3Q1086.47 152.219 1086.51 152.133Q1086.56 152.047 1086.59 151.956Q1086.63 151.865 1086.66 151.77Q1086.68 151.675 1086.7 151.577Q1086.72 151.479 1086.73 151.378Q1086.74 151.278 1086.74 151.176L1086.74 -80.8458Q1086.74 -80.9479 1086.73 -81.0484Q1086.72 -81.1489 1086.7 -81.247Q1086.68 -81.3451 1086.66 -81.44Q1086.63 -81.5349 1086.59 -81.6258Q1086.56 -81.7168 1086.51 -81.803Q1086.47 -81.8892 1086.41 -81.97Q1086.36 -82.0508 1086.3 -82.1256Q1086.24 -82.2003 1086.17 -82.2684Q1086.1 -82.3364 1086.03 -82.3972Q1085.95 -82.4581 1085.87 -82.5111Q1085.79 -82.5642 1085.71 -82.6091Q1085.62 -82.654 1085.53 -82.6904Q1085.44 -82.7268 1085.34 -82.7543Q1085.25 -82.7819 1085.15 -82.8004Q1085.05 -82.8188 1084.95 -82.8281Q1084.85 -82.8374 1084.75 -82.8374Z" clip-rule="evenodd"/>
		</clipPath>
	</defs>
	<g clip-path="url(#clip_5)">
		<path fill="rgb(0,0,0)" stroke="none" transform="matrix(0.9958 0 0 0.9958 8.2253 41.2321)" d="M2.25515 4.51031C3.50064 4.51031 4.51031 3.50064 4.51031 2.25516C4.51031 1.00967 3.50064 0 2.25515 0C1.00967 0 0 1.00967 0 2.25516C0 3.50064 1.00967 4.51031 2.25515 4.51031Z"/>
	</g>
	<defs>
		<clipPath id="clip_6">
			<path d="M1084.75 -82.8374L-564.297 -82.8374Q-564.399 -82.8374 -564.5 -82.8281Q-564.6 -82.8188 -564.698 -82.8004Q-564.796 -82.7819 -564.891 -82.7543Q-564.986 -82.7268 -565.077 -82.6904Q-565.168 -82.654 -565.254 -82.6091Q-565.34 -82.5642 -565.421 -82.5111Q-565.502 -82.4581 -565.577 -82.3972Q-565.651 -82.3364 -565.72 -82.2684Q-565.788 -82.2003 -565.848 -82.1256Q-565.909 -82.0508 -565.962 -81.97Q-566.015 -81.8892 -566.06 -81.803Q-566.105 -81.7168 -566.142 -81.6258Q-566.178 -81.5349 -566.206 -81.44Q-566.233 -81.3451 -566.251 -81.247Q-566.27 -81.1489 -566.279 -81.0484Q-566.289 -80.9479 -566.289 -80.8458L-566.289 151.176Q-566.289 151.278 -566.279 151.378Q-566.27 151.479 -566.251 151.577Q-566.233 151.675 -566.206 151.77Q-566.178 151.865 -566.142 151.956Q-566.105 152.047 -566.06 152.133Q-566.015 152.219 -565.962 152.3Q-565.909 152.381 -565.848 152.455Q-565.788 152.53 -565.719 152.598Q-565.651 152.666 -565.577 152.727Q-565.502 152.788 -565.421 152.841Q-565.34 152.894 -565.254 152.939Q-565.168 152.984 -565.077 153.02Q-564.986 153.057 -564.891 153.084Q-564.796 153.112 -564.698 153.13Q-564.6 153.149 -564.5 153.158Q-564.399 153.167 -564.297 153.167L1084.75 153.167Q1084.85 153.167 1084.95 153.158Q1085.05 153.149 1085.15 153.13Q1085.25 153.112 1085.34 153.084Q1085.44 153.057 1085.53 153.02Q1085.62 152.984 1085.71 152.939Q1085.79 152.894 1085.87 152.841Q1085.95 152.788 1086.03 152.727Q1086.1 152.666 1086.17 152.598Q1086.24 152.53 1086.3 152.455Q1086.36 152.381 1086.41 152.3Q1086.47 152.219 1086.51 152.133Q1086.56 152.047 1086.59 151.956Q1086.63 151.865 1086.66 151.77Q1086.68 151.675 1086.7 151.577Q1086.72 151.479 1086.73 151.378Q1086.74 151.278 1086.74 151.176L1086.74 -80.8458Q1086.74 -80.9479 1086.73 -81.0484Q1086.72 -81.1489 1086.7 -81.247Q1086.68 -81.3451 1086.66 -81.44Q1086.63 -81.5349 1086.59 -81.6258Q1086.56 -81.7168 1086.51 -81.803Q1086.47 -81.8892 1086.41 -81.97Q1086.36 -82.0508 1086.3 -82.1256Q1086.24 -82.2003 1086.17 -82.2684Q1086.1 -82.3364 1086.03 -82.3972Q1085.95 -82.4581 1085.87 -82.5111Q1085.79 -82.5642 1085.71 -82.6091Q1085.62 -82.654 1085.53 -82.6904Q1085.44 -82.7268 1085.34 -82.7543Q1085.25 -82.7819 1085.15 -82.8004Q1085.05 -82.8188 1084.95 -82.8281Q1084.85 -82.8374 1084.75 -82.8374Z" clip-rule="evenodd"/>
		</clipPath>
	</defs>
	<g clip-path="url(#clip_6)">
		<path fill="rgb(0,0,0)" stroke="none" transform="matrix(0.9958 0 0 0.9958 12.7133 30.0037)" d="M9.00258 4.51031C9.00258 2.02278 6.73491 0 4.47976 0L4.47976 2.25516C5.60746 2.25516 6.74742 3.26667 6.74742 4.51031C6.74742 5.75395 5.74385 6.76547 4.50141 6.76547C3.25873 6.76547 2.25515 5.75395 2.25515 4.51031L0 4.51031C0 6.99784 2.01605 9.02062 4.50141 9.02062C6.98677 9.02062 9.00258 6.99784 9.00258 4.51031Z"/>
	</g>
	<defs>
		<clipPath id="clip_7">
			<path d="M1084.75 -82.8374L-564.297 -82.8374Q-564.399 -82.8374 -564.5 -82.8281Q-564.6 -82.8188 -564.698 -82.8004Q-564.796 -82.7819 -564.891 -82.7543Q-564.986 -82.7268 -565.077 -82.6904Q-565.168 -82.654 -565.254 -82.6091Q-565.34 -82.5642 -565.421 -82.5111Q-565.502 -82.4581 -565.577 -82.3972Q-565.651 -82.3364 -565.72 -82.2684Q-565.788 -82.2003 -565.848 -82.1256Q-565.909 -82.0508 -565.962 -81.97Q-566.015 -81.8892 -566.06 -81.803Q-566.105 -81.7168 -566.142 -81.6258Q-566.178 -81.5349 -566.206 -81.44Q-566.233 -81.3451 -566.251 -81.247Q-566.27 -81.1489 -566.279 -81.0484Q-566.289 -80.9479 -566.289 -80.8458L-566.289 151.176Q-566.289 151.278 -566.279 151.378Q-566.27 151.479 -566.251 151.577Q-566.233 151.675 -566.206 151.77Q-566.178 151.865 -566.142 151.956Q-566.105 152.047 -566.06 152.133Q-566.015 152.219 -565.962 152.3Q-565.909 152.381 -565.848 152.455Q-565.788 152.53 -565.719 152.598Q-565.651 152.666 -565.577 152.727Q-565.502 152.788 -565.421 152.841Q-565.34 152.894 -565.254 152.939Q-565.168 152.984 -565.077 153.02Q-564.986 153.057 -564.891 153.084Q-564.796 153.112 -564.698 153.13Q-564.6 153.149 -564.5 153.158Q-564.399 153.167 -564.297 153.167L1084.75 153.167Q1084.85 153.167 1084.95 153.158Q1085.05 153.149 1085.15 153.13Q1085.25 153.112 1085.34 153.084Q1085.44 153.057 1085.53 153.02Q1085.62 152.984 1085.71 152.939Q1085.79 152.894 1085.87 152.841Q1085.95 152.788 1086.03 152.727Q1086.1 152.666 1086.17 152.598Q1086.24 152.53 1086.3 152.455Q1086.36 152.381 1086.41 152.3Q1086.47 152.219 1086.51 152.133Q1086.56 152.047 1086.59 151.956Q1086.63 151.865 1086.66 151.77Q1086.68 151.675 1086.7 151.577Q1086.72 151.479 1086.73 151.378Q1086.74 151.278 1086.74 151.176L1086.74 -80.8458Q1086.74 -80.9479 1086.73 -81.0484Q1086.72 -81.1489 1086.7 -81.247Q1086.68 -81.3451 1086.66 -81.44Q1086.63 -81.5349 1086.59 -81.6258Q1086.56 -81.7168 1086.51 -81.803Q1086.47 -81.8892 1086.41 -81.97Q1086.36 -82.0508 1086.3 -82.1256Q1086.24 -82.2003 1086.17 -82.2684Q1086.1 -82.3364 1086.03 -82.3972Q1085.95 -82.4581 1085.87 -82.5111Q1085.79 -82.5642 1085.71 -82.6091Q1085.62 -82.654 1085.53 -82.6904Q1085.44 -82.7268 1085.34 -82.7543Q1085.25 -82.7819 1085.15 -82.8004Q1085.05 -82.8188 1084.95 -82.8281Q1084.85 -82.8374 1084.75 -82.8374Z" clip-rule="evenodd"/>
		</clipPath>
	</defs>
	<g clip-path="url(#clip_7)">
		<path fill="rgb(0,0,0)" stroke="none" transform="matrix(0.9958 0 0 0.9958 26.1795 38.9864)" d="M0 3.38285C0 1.51763 1.51787 0 3.38165 0C5.24567 0 6.7633 1.51763 6.7633 3.38285C6.7633 5.24808 5.24543 6.7657 3.38165 6.7657C1.51763 6.7657 0 5.24808 0 3.38285ZM2.25515 3.38261C2.25515 4.00515 2.76031 4.51031 3.38165 4.51031C4.00179 4.51031 4.50814 4.00515 4.50814 3.38261C4.50814 2.76007 4.00299 2.25491 3.38165 2.25491C2.76031 2.25491 2.25515 2.76007 2.25515 3.38261Z" fill-rule="evenodd"/>
	</g>
	<defs>
		<clipPath id="clip_8">
			<path d="M1084.75 -82.8374L-564.297 -82.8374Q-564.399 -82.8374 -564.5 -82.8281Q-564.6 -82.8188 -564.698 -82.8004Q-564.796 -82.7819 -564.891 -82.7543Q-564.986 -82.7268 -565.077 -82.6904Q-565.168 -82.654 -565.254 -82.6091Q-565.34 -82.5642 -565.421 -82.5111Q-565.502 -82.4581 -565.577 -82.3972Q-565.651 -82.3364 -565.72 -82.2684Q-565.788 -82.2003 -565.848 -82.1256Q-565.909 -82.0508 -565.962 -81.97Q-566.015 -81.8892 -566.06 -81.803Q-566.105 -81.7168 -566.142 -81.6258Q-566.178 -81.5349 -566.206 -81.44Q-566.233 -81.3451 -566.251 -81.247Q-566.27 -81.1489 -566.279 -81.0484Q-566.289 -80.9479 -566.289 -80.8458L-566.289 151.176Q-566.289 151.278 -566.279 151.378Q-566.27 151.479 -566.251 151.577Q-566.233 151.675 -566.206 151.77Q-566.178 151.865 -566.142 151.956Q-566.105 152.047 -566.06 152.133Q-566.015 152.219 -565.962 152.3Q-565.909 152.381 -565.848 152.455Q-565.788 152.53 -565.719 152.598Q-565.651 152.666 -565.577 152.727Q-565.502 152.788 -565.421 152.841Q-565.34 152.894 -565.254 152.939Q-565.168 152.984 -565.077 153.02Q-564.986 153.057 -564.891 153.084Q-564.796 153.112 -564.698 153.13Q-564.6 153.149 -564.5 153.158Q-564.399 153.167 -564.297 153.167L1084.75 153.167Q1084.85 153.167 1084.95 153.158Q1085.05 153.149 1085.15 153.13Q1085.25 153.112 1085.34 153.084Q1085.44 153.057 1085.53 153.02Q1085.62 152.984 1085.71 152.939Q1085.79 152.894 1085.87 152.841Q1085.95 152.788 1086.03 152.727Q1086.1 152.666 1086.17 152.598Q1086.24 152.53 1086.3 152.455Q1086.36 152.381 1086.41 152.3Q1086.47 152.219 1086.51 152.133Q1086.56 152.047 1086.59 151.956Q1086.63 151.865 1086.66 151.77Q1086.68 151.675 1086.7 151.577Q1086.72 151.479 1086.73 151.378Q1086.74 151.278 1086.74 151.176L1086.74 -80.8458Q1086.74 -80.9479 1086.73 -81.0484Q1086.72 -81.1489 1086.7 -81.247Q1086.68 -81.3451 1086.66 -81.44Q1086.63 -81.5349 1086.59 -81.6258Q1086.56 -81.7168 1086.51 -81.803Q1086.47 -81.8892 1086.41 -81.97Q1086.36 -82.0508 1086.3 -82.1256Q1086.24 -82.2003 1086.17 -82.2684Q1086.1 -82.3364 1086.03 -82.3972Q1085.95 -82.4581 1085.87 -82.5111Q1085.79 -82.5642 1085.71 -82.6091Q1085.62 -82.654 1085.53 -82.6904Q1085.44 -82.7268 1085.34 -82.7543Q1085.25 -82.7819 1085.15 -82.8004Q1085.05 -82.8188 1084.95 -82.8281Q1084.85 -82.8374 1084.75 -82.8374Z" clip-rule="evenodd"/>
		</clipPath>
	</defs>
	<g clip-path="url(#clip_8)">
		<path fill="rgb(0,0,0)" stroke="none" transform="matrix(0.9958 0 0 0.9958 32.9043 23.2667)" d="M4.51704 6.76546C3.27436 6.76546 2.25636 5.75395 2.25636 4.51031C2.25636 3.26667 3.37275 2.25515 4.50021 2.25515L4.50021 0C2.24505 0 0 2.02278 0 4.51031C0 6.99783 2.02735 9.02062 4.51247 9.02062C6.99759 9.02062 9.02495 6.99783 9.02495 4.51031L6.76979 4.51031C6.77003 5.75395 5.75852 6.76546 4.51704 6.76546Z"/>
	</g>
	<defs>
		<clipPath id="clip_9">
			<path d="M1084.75 -82.8374L-564.297 -82.8374Q-564.399 -82.8374 -564.5 -82.8281Q-564.6 -82.8188 -564.698 -82.8004Q-564.796 -82.7819 -564.891 -82.7543Q-564.986 -82.7268 -565.077 -82.6904Q-565.168 -82.654 -565.254 -82.6091Q-565.34 -82.5642 -565.421 -82.5111Q-565.502 -82.4581 -565.577 -82.3972Q-565.651 -82.3364 -565.72 -82.2684Q-565.788 -82.2003 -565.848 -82.1256Q-565.909 -82.0508 -565.962 -81.97Q-566.015 -81.8892 -566.06 -81.803Q-566.105 -81.7168 -566.142 -81.6258Q-566.178 -81.5349 -566.206 -81.44Q-566.233 -81.3451 -566.251 -81.247Q-566.27 -81.1489 -566.279 -81.0484Q-566.289 -80.9479 -566.289 -80.8458L-566.289 151.176Q-566.289 151.278 -566.279 151.378Q-566.27 151.479 -566.251 151.577Q-566.233 151.675 -566.206 151.77Q-566.178 151.865 -566.142 151.956Q-566.105 152.047 -566.06 152.133Q-566.015 152.219 -565.962 152.3Q-565.909 152.381 -565.848 152.455Q-565.788 152.53 -565.719 152.598Q-565.651 152.666 -565.577 152.727Q-565.502 152.788 -565.421 152.841Q-565.34 152.894 -565.254 152.939Q-565.168 152.984 -565.077 153.02Q-564.986 153.057 -564.891 153.084Q-564.796 153.112 -564.698 153.13Q-564.6 153.149 -564.5 153.158Q-564.399 153.167 -564.297 153.167L1084.75 153.167Q1084.85 153.167 1084.95 153.158Q1085.05 153.149 1085.15 153.13Q1085.25 153.112 1085.34 153.084Q1085.44 153.057 1085.53 153.02Q1085.62 152.984 1085.71 152.939Q1085.79 152.894 1085.87 152.841Q1085.95 152.788 1086.03 152.727Q1086.1 152.666 1086.17 152.598Q1086.24 152.53 1086.3 152.455Q1086.36 152.381 1086.41 152.3Q1086.47 152.219 1086.51 152.133Q1086.56 152.047 1086.59 151.956Q1086.63 151.865 1086.66 151.77Q1086.68 151.675 1086.7 151.577Q1086.72 151.479 1086.73 151.378Q1086.74 151.278 1086.74 151.176L1086.74 -80.8458Q1086.74 -80.9479 1086.73 -81.0484Q1086.72 -81.1489 1086.7 -81.247Q1086.68 -81.3451 1086.66 -81.44Q1086.63 -81.5349 1086.59 -81.6258Q1086.56 -81.7168 1086.51 -81.803Q1086.47 -81.8892 1086.41 -81.97Q1086.36 -82.0508 1086.3 -82.1256Q1086.24 -82.2003 1086.17 -82.2684Q1086.1 -82.3364 1086.03 -82.3972Q1085.95 -82.4581 1085.87 -82.5111Q1085.79 -82.5642 1085.71 -82.6091Q1085.62 -82.654 1085.53 -82.6904Q1085.44 -82.7268 1085.34 -82.7543Q1085.25 -82.7819 1085.15 -82.8004Q1085.05 -82.8188 1084.95 -82.8281Q1084.85 -82.8374 1084.75 -82.8374Z" clip-rule="evenodd"/>
		</clipPath>
	</defs>
	<g clip-path="url(#clip_9)">
		<path fill="rgb(0,0,0)" stroke="none" transform="matrix(0.9958 0 0 0.9958 18.2996 46.8464)" d="M0 4.51031C0 6.99783 2.25299 9.02062 4.50814 9.02062L4.50814 6.76546C3.38045 6.76546 2.25515 5.75395 2.25515 4.51031C2.25515 3.26667 3.38045 2.25515 4.50814 2.25515L4.50814 0C2.25275 0 0 2.02278 0 4.51031Z"/>
	</g>

</svg>